<?xml version="1.0" encoding="utf-8"?>
<!-- Generator: Adobe Illustrator 27.0.0, SVG Export Plug-In . SVG Version: 6.00 Build 0)  -->
<svg version="1.1" id="Capa_1" xmlns="http://www.w3.org/2000/svg" xmlns:xlink="http://www.w3.org/1999/xlink" x="0px" y="0px"
	 viewBox="0 0 410 80" style="enable-background:new 0 0 410 80;" xml:space="preserve">
<style type="text/css">
	.st0{fill:#FFFFFF;}
</style>
<g>
	<g>
		<path class="st0" d="M1.5,31.6C1.5,11.7,6.8,2,20.8,2c13,0,17.1,9.6,16.8,23.3c-8.6-0.1-14-0.3-14-0.3c0.1-10.2-0.7-13.7-3.5-13.7
			c-3.4,0-4.4,5.4-4.2,20.4c0,15.6,1.1,20.2,4.3,20.2c2.4,0,4-2.6,3.6-15.5C31.4,36,37.9,36,37.9,36c0.4,19.3-7.1,25.1-17.9,25
			C6.9,61,1.5,52.8,1.5,31.6z"/>
		<path class="st0" d="M41.5,4.9c0,0,4,0.1,12.4-0.1c0,0-0.4,8.4-0.3,19.8c2.2-3.6,5.6-6.1,10.5-6c6.4,0,9.2,4.4,9.5,11.5
			c0.5,13,0.2,30.8,0.2,30.8s-4.4-0.1-12.8-0.1c0,0,0.2-15.5,0-28.4c-0.1-3-0.8-4-2.8-4c-2.2,0-3.9,2.1-3.9,6
			c-0.1,11.6-0.1,23.9-0.1,23.9s-4.1-0.1-12.8,0.1C41.5,58.3,41.9,34.6,41.5,4.9z"/>
		<path class="st0" d="M77.3,38.9c0-12,5.6-20.5,17.6-20.5c12.5,0,17.5,8.7,17.5,20.8c0,14.9-6.3,21.2-17.7,21.2
			C81.6,60.4,77.3,51.9,77.3,38.9z M99,39.3c0-9.4-1.2-13.4-4-13.4c-3.1,0-4.1,4.1-4.1,13c0,11.1,1.1,14.3,4.1,14.3
			C97.8,53.2,99,49.5,99,39.3z"/>
		<path class="st0" d="M115.3,8c0-4.1,3-6.5,8.1-6.5c5,0,7.7,2.8,7.7,6.6c0,3.9-2.6,6.9-7.8,6.9C118,15,115.3,12.4,115.3,8z
			 M116.8,18.9c0,0,4.2,0.1,12.7-0.1c0,0-0.1,14.9,0.4,40.6c0,0-5.4,0-12.8,0.1C117.1,59.5,117.2,48.6,116.8,18.9z"/>
		<path class="st0" d="M133.4,45.1c0,0,4.1,0.1,12.2,0.5c-0.4,4.9,0.7,7.2,3.9,7.2c1.8,0,3.5-1.1,3.5-3.7c0-1.9-0.9-3.7-8.2-6.2
			c-7.9-2.7-11.5-6.6-11.5-13c0-6.4,5.5-11.6,15.8-11.6c10.8,0,15.8,6.4,15.1,16.1c0,0-5.1-0.2-11.7-0.2c0.5-4.6-0.4-7.7-3.6-7.7
			c-2.5,0-3.8,1.7-3.8,3.6c0,2.8,1.8,4.5,8,6.8c9.3,3.5,11.7,7.1,11.7,12.3c0,8.4-7.1,11.6-15.5,11.6
			C138.9,60.7,132.7,55.8,133.4,45.1z"/>
		<path class="st0" d="M167.1,8.9c0-4.1,2.9-6.8,7.8-6.8c5,0,7.3,3.3,7.3,6.8c0,4.7-3.1,7.2-7.4,7.2
			C170.2,16.1,167.1,13.8,167.1,8.9z M168.3,20.2c0,0,4.2,0,12.7-0.1c0,0-0.1,12.8,0.4,38.4c0,0-5.3,0-12.8,0.1
			C168.6,58.6,168.7,49.8,168.3,20.2z"/>
		<path class="st0" d="M186.1,19.5c0,0,2.2,0.2,10.6-0.1c0,0-0.3,2.9-0.3,7.1c2.2-4.9,7.8-8.2,13.1-8.3c0,0-0.3,3.1-0.5,11
			c-6.6,1.1-9.7,4.7-10,12c-0.2,7.6,0.2,18.5,0.2,18.5s-3.5,0-12.9,0.1C186.3,59.8,186.4,39.1,186.1,19.5z"/>
		<path class="st0" d="M228.7,38.1c0-6.2,0.4-12.5,1.3-18.8c0,0,3.4,0.4,12,0.7c-0.6,4.9-0.8,10.4-0.8,14.4
			c0,14.2,1.4,16.6,3.9,16.6c2,0,3.5-2.7,3.5-6.6c0.1-13.3-0.7-26.1-0.7-26.1s3.8,0.2,13,0.2c0,0-0.1,18,0.2,42.5
			c0,0-3.2-0.2-10.4-0.1c0,0,0.1-3.2,0.2-7.3c-1.9,4.3-6,6.6-10.1,6.6C232.7,60.3,228.7,54.9,228.7,38.1z"/>
		<path class="st0" d="M285.6,32.4c0-2.7-0.7-4-2.6-4c-2.6,0-3.9,2.4-3.9,5.7c-0.2,6.1-0.1,24.4-0.1,24.4s-6-0.1-12.9,0
			c0,0,0.4-15.4,0.2-38.4c0,0,4.3,0.2,10.1-0.1c0,0-0.2,3.2-0.1,6.1c2-4.2,6.5-7.4,11.8-7.4c6.6,0,9.8,4,10.1,11.1
			c0.2,4.3,0.2,31.2,0.2,31.2c-4.6,0-12.9,0.1-12.9,0.1S285.6,45.1,285.6,32.4z"/>
		<path class="st0" d="M310.5,67.2c0.9,0.1,1.6,0.2,2.3,0.2c5.4,0,7.2-2.3,7.3-6.8c0.4-15-0.1-41.6-0.1-41.6
			c8.2,0,12.4-0.1,12.4-0.1s0.8,18.4,0.4,43.3c-0.2,9.4-5.1,15.4-18.9,15.4c-1.3,0-2.5-0.1-3.9-0.2
			C310.1,77.3,310.4,73.5,310.5,67.2z M318.3,8.2c0-4,2.5-6.7,8-6.7c4.9,0,7.9,2.6,7.9,6.6c0,4.1-3,7-8,7
			C320.5,15,318.3,11.7,318.3,8.2z"/>
		<path class="st0" d="M337,39.1c0-11.6,4.8-20.5,17.4-20.5c14.1,0,17.7,10.3,16.8,23.8c0,0-8.3,0.1-21,0.2
			c0.3,7.2,1.6,10.2,4.5,10.2c2.4,0,3.7-2.3,3.9-7.3c0,0,6.5,0.1,13,0.2c-1.1,9.3-7.3,14.8-16.9,14.8C340.8,60.5,337,51.4,337,39.1z
			 M350.2,36.2c2.6,0,5.1-0.1,7.8-0.2c0.1-6.6-1-10.4-3.7-10.4C351.6,25.7,350.5,29.3,350.2,36.2z"/>
		<path class="st0" d="M375,38.1c0-6.2,0.3-11.8,1.1-18.1c0,0,3.4,0.5,12,0.7c-0.6,4.9-0.6,9.7-0.6,13.7c0,14.2,1.4,15.6,3.9,15.6
			c2,0,3.5-2.7,3.5-6.6c0.1-13.3-0.5-23.5-0.5-23.5s3.8,0.2,13,0.2c0,0-0.3,15.1,0,39.6c0,0-3.2-0.2-10.4-0.1c0,0,0.1-2.9,0.2-7
			c-1.9,4.3-6,6.6-10.1,6.6C379.1,59.3,375,54.6,375,38.1z"/>
	</g>
</g>
</svg>
