<?xml version="1.0" encoding="utf-8"?>
<!-- Generator: Adobe Illustrator 27.0.0, SVG Export Plug-In . SVG Version: 6.00 Build 0)  -->
<svg version="1.1" id="Capa_1" xmlns="http://www.w3.org/2000/svg" xmlns:xlink="http://www.w3.org/1999/xlink" x="0px" y="0px"
	 viewBox="0 0 410 80" style="enable-background:new 0 0 410 80;" xml:space="preserve">
<style type="text/css">
	.st0{fill:#FFFFFF;}
</style>
<g>
	<path class="st0" d="M3.4,31c0-19.1,4.7-28.4,17.1-28.4c11.5,0,15.2,9.2,14.9,22.3c-7.6-0.1-12.4-0.3-12.4-0.3
		c0.1-9.8-0.6-13.2-3.1-13.2c-3,0-3.9,5.2-3.8,19.5c0,15,0.9,19.4,3.8,19.4c2.1,0,3.6-2.5,3.2-14.9c6.7-0.2,12.6-0.2,12.6-0.2
		c0.3,18.5-6.3,24-15.9,23.9C8.2,59.2,3.4,51.4,3.4,31z"/>
	<path class="st0" d="M38.8,5.4c0,0,3.6,0.1,11-0.1c0,0-0.3,8.1-0.3,19c2-3.5,5-5.8,9.3-5.7c5.6,0,8.2,4.3,8.5,11
		c0.4,12.5,0.2,29.5,0.2,29.5S63.6,59,56.2,59c0,0,0.2-14.9,0-27.2c-0.1-2.9-0.7-3.9-2.5-3.9c-2,0-3.4,2-3.4,5.7
		c-0.1,11.2-0.1,22.9-0.1,22.9s-3.7-0.1-11.4,0.1C38.8,56.6,39.2,33.8,38.8,5.4z"/>
	<path class="st0" d="M70.6,38c0-11.5,5-19.6,15.6-19.6c11.1,0,15.5,8.3,15.5,19.9c0,14.3-5.6,20.3-15.7,20.3
		C74.4,58.6,70.6,50.4,70.6,38z M89.8,38.4c0-9-1-12.9-3.6-12.9c-2.7,0-3.7,4-3.7,12.5c0,10.6,0.9,13.7,3.7,13.7
		C88.8,51.7,89.8,48.2,89.8,38.4z"/>
	<path class="st0" d="M135.9,39.5c0,11.7-5.6,19.3-15.7,19.3c-10.1,0-15.7-7.5-15.7-19.6c0-12.6,6.1-19.9,15.9-19.9
		C130.2,19.3,135.9,26.3,135.9,39.5z M116.5,39.3c0,9.2,1.5,12.5,3.8,12.5c2.1,0,3.7-3,3.7-12.1c0-9.8-1.1-13.3-3.8-13.3
		C117.7,26.3,116.5,30.4,116.5,39.3z"/>
	<path class="st0" d="M138.3,43.9c0,0,3.7,0.1,10.8,0.5c-0.3,4.7,0.6,6.9,3.5,6.9c1.6,0,3.1-1,3.1-3.6c0-1.9-0.8-3.6-7.3-6
		c-7-2.6-10.2-6.3-10.2-12.5c0-6.1,4.9-11.2,14-11.2c9.6,0,14,6.1,13.4,15.4c0,0-4.5-0.2-10.3-0.2c0.4-4.4-0.3-7.4-3.2-7.4
		c-2.2,0-3.3,1.6-3.3,3.5c0,2.7,1.6,4.3,7.1,6.5c8.3,3.3,10.4,6.8,10.4,11.8c0,8.1-6.3,11.2-13.8,11.2
		C143.2,58.9,137.7,54.2,138.3,43.9z"/>
	<path class="st0" d="M168.5,38.2c0-11.1,4.3-19.7,15.5-19.7c12.5,0,15.7,9.8,14.9,22.8c0,0-7.3,0.1-18.6,0.2c0.3,6.9,1.5,9.8,4,9.8
		c2.1,0,3.2-2.2,3.4-7c0,0,5.8,0.1,11.5,0.2c-0.9,8.9-6.5,14.2-15,14.2C171.8,58.7,168.5,50,168.5,38.2z M180.2,35.5
		c2.3,0,4.5-0.1,6.9-0.2c0.1-6.3-0.9-9.9-3.2-9.9C181.5,25.4,180.4,28.8,180.2,35.5z"/>
	<path class="st0" d="M216.1,48.7c0-8.4,6.5-13.2,18-14c0,0-0.1-1.4-0.1-2.5c-0.2-4.6-0.9-6.1-2.8-6.1c-2.3,0-3.2,2.4-3.1,6.9
		c0,0-4.3,0.2-10.7,0.1c-0.4-8.3,4-14.4,14.2-14.4c9.3,0,13.3,5.3,13.6,14c0.3,14,0.1,26,0.1,26s-2.6,0.1-8.6,0.2
		c0,0,0.3-2.6,0.3-5.8c-1.7,4.1-5.7,5.6-10,5.6C220.7,58.6,216.1,55,216.1,48.7z M234.5,40c-5.5,0.8-7.3,4-7.3,7.2
		c0,2.3,0.9,4,3.3,4c2.2,0,4.1-1.8,4.1-8.2C234.6,42.1,234.6,41,234.5,40z"/>
	<path class="st0" d="M262.6,68.6c0-3.6,2.9-6.7,7.4-8.1c-2.7-1.3-4-3.4-4-5.7c0-2.1,1.5-4.3,4.4-6c-5-2.3-7.4-7.3-7.4-14.9
		c0-8.7,4.8-16,14.9-16c0.8,0,2.1,0.2,2.1,0.2c0.4-2.2,1.4-6.4,2.5-12.5c0,0,3.2,0.9,10.3,2.4c0,0-2.6,4.6-6.5,12.3
		c4.1,2.8,6.1,7.9,6.1,13.6c0,11.3-6.1,16.4-13.9,16.4c-1,0-2,0-2.8-0.2c-0.6,0.5-0.9,1.1-0.9,1.6c0,1.1,1.3,1.7,4.7,2.2
		c10.9,1.5,15.1,4.9,15.1,11c0,8.4-8.2,12.5-17,12.5C268.4,77.4,262.6,74.3,262.6,68.6z M276.5,62.9c-2.4,1.2-3.4,2.9-3.4,4.4
		c0,2.2,2,3.5,5,3.5c3.2,0,5.9-1.5,5.9-4C284,64.5,281.4,63.4,276.5,62.9z M281.4,34.4c0-5.8-1.1-9.4-3.5-9.4s-3.7,3-3.7,9.4
		c0,6.8,1.3,9.5,3.7,9.5C280.1,43.8,281.4,41.2,281.4,34.4z"/>
	<path class="st0" d="M293.5,48.9c0-8,5.2-13.6,18-14.1c0,0,0-0.9-0.1-1.7c-0.3-4.6-0.9-6.1-2.8-6.1c-2.3,0-3.2,2.2-3.1,6.4
		c0,0-4.4-0.5-10.7-0.8c0-8.8,4.5-13.1,14.2-13.1c9.3,0,13.3,5.3,13.6,14c0.3,14,0.1,26.5,0.1,26.5s-2.6,0.1-8.6,0.2
		c0,0,0.3-2.9,0.3-6.4c-1.7,4-5.7,5.6-10,5.6C299.3,59.4,293.5,56.5,293.5,48.9z M312,40c-5.2,0.5-7.3,3.2-7.3,7.6
		c0,2.9,1.3,4.5,3.3,4.5c2.6,0,4.1-2.2,4.1-8.2C312.1,42.7,312,40,312,40z"/>
	<path class="st0" d="M326.7,19.7c0,0,3.9,0.1,9.4,0.1c0,0-0.2,2.4-0.2,5.6c2.1-4,5.6-6.7,10.3-6.7c4.9,0,7.3,2.9,8.3,6.5
		c1.8-3.6,5.3-6,9.7-6c6.2,0,8.5,4.4,8.5,10.4c0.3,13.1,0.2,29.4,0.2,29.4s-3.8-0.1-11.3,0c0,0-0.1-15.4-0.3-26.8
		c-0.1-2.7-0.7-4.1-2.3-4.1c-2.4,0-3.4,2.4-3.4,5.7c-0.2,10.2,0,21.9,0,21.9s-5.5,0-11.6,0.1c0,0,0.3-13.9,0.1-23.5
		c0-2.8-0.6-4.4-2.4-4.4c-2.3,0-3.6,2.8-3.6,6.3c-0.1,9.1,0.3,22.4,0.3,22.4s-6,0-11.4,0.1C326.9,56.7,326.9,41.3,326.7,19.7z"/>
	<path class="st0" d="M376,38.2c0-11.1,4.3-19.7,15.5-19.7c12.5,0,15.7,9.8,14.9,22.8c0,0-7.3,0.1-18.6,0.2c0.3,6.9,1.5,9.8,4,9.8
		c2.1,0,3.2-2.2,3.4-7c0,0,5.8,0.1,11.5,0.2c-0.9,8.9-6.5,14.2-15,14.2C379.3,58.7,376,50,376,38.2z M387.7,35.5
		c2.3,0,4.5-0.1,6.9-0.2c0.1-6.3-0.9-9.9-3.2-9.9S387.9,28.8,387.7,35.5z"/>
</g>
</svg>
