<?xml version="1.0" encoding="utf-8"?>
<!-- Generator: Adobe Illustrator 27.0.0, SVG Export Plug-In . SVG Version: 6.00 Build 0)  -->
<svg version="1.1" id="Capa_1" xmlns="http://www.w3.org/2000/svg" xmlns:xlink="http://www.w3.org/1999/xlink" x="0px" y="0px"
	 viewBox="0 0 382.7 80" style="enable-background:new 0 0 382.7 80;" xml:space="preserve">
<style type="text/css">
	.st0{fill:#FFFFFD;}
</style>
<g>
	<path class="st0" d="M3.3,38.9c0,0,4.4,0.2,11.2,0.2c-0.7,8.4,0.4,12.1,3.2,12.1c2,0,3-1.5,3-6.1c0-3.7-1.4-6.3-8-11
		C5.5,29.1,3,24,3,16.8C3,6.5,9,2.3,17.6,2.3c10.5,0,15,7.2,13.6,20.6c0,0-5.3-0.5-10.8-0.6c1-8.2-0.5-11.3-2.9-11.3
		c-2.2,0-3.1,2.4-3.1,6.4c0,3.9,1.8,6.6,7.8,10.7c7.3,4.9,9.9,9.3,9.9,16.9c0,11.1-6,15.1-14.5,15.1C6.2,60,2,52.9,3.3,38.9z"/>
	<path class="st0" d="M34.1,38.9c0-12.8,4.9-20.7,14.9-20.7c9.4,0,14,7.7,13.2,17.6c-7.6-0.2-10.7-0.2-10.7-0.2
		c0.2-6.3-0.8-9.6-2.9-9.6c-2.3,0-3.3,3.9-3.3,13.2c0,8.8,1.1,12.2,3.3,12.2c1.9,0,3.2-2.3,2.9-9.2c0,0,2.5,0.1,10.8-0.2
		c0.2,13.7-6,17.8-13.7,17.8C38.2,59.7,34.1,52.2,34.1,38.9z"/>
	<path class="st0" d="M64.8,39.1c0-10.9,4.1-19.5,14.4-19.5c11.5,0,14.7,9.5,13.9,23.2c0,0-6.9,0.1-17.4,0.2
		c0.3,6.5,1.4,8.7,3.7,8.7c2,0,3-1.5,3.2-6.4c0,0,4.8,0.6,10.7,0.9c-0.7,7.4-5.3,13.2-14,13.2C69.6,59.4,64.8,53.1,64.8,39.1z
		 M75.8,36.9c2.2,0,4.2-0.1,6.5-0.2c0.1-8.2-1-10-3-10C76.9,26.7,75.9,29.8,75.8,36.9z"/>
	<path class="st0" d="M95.2,69.8c0-3.7,2.7-6.9,6.9-8.4c-2.6-1.4-3.7-3.5-3.7-5.8c0-2.2,1.4-4.4,4.1-6.1c-4.6-2.4-6.9-7.5-6.9-15.3
		c0-8.9,4.5-16.5,14-16.5c0.7,0,2,0.2,2,0.2c0.4-2.3,1.3-6.5,2.3-12.8c0,0,3,1,9.6,2.5c0,0-2.4,4.7-6.1,12.7c3.8,2.9,5.7,8.1,5.7,14
		c0,11.6-5.7,16.9-13,16.9c-1,0-1.8,0-2.6-0.2c-0.6,0.6-0.8,1.1-0.8,1.6c0,1.1,1.2,1.8,4.4,2.2c10.2,1.5,14.1,5,14.1,11.3
		c0,8.7-7.7,12.8-15.9,12.8C100.6,78.9,95.2,75.7,95.2,69.8z M108.2,64c-2.2,1.3-3.2,2.9-3.2,4.5c0,2.3,1.9,3.6,4.6,3.6
		c3,0,5.5-1.5,5.5-4.1C115.1,65.6,112.7,64.5,108.2,64z M112.7,34.6c0-6-1-9.6-3.3-9.6s-3.4,3.1-3.4,9.6c0,7,1.2,9.7,3.4,9.7
		C111.6,44.4,112.7,41.7,112.7,34.6z"/>
	<path class="st0" d="M126,57.6c0.3-35.3,0.1-52.9,0.1-52.9c7,0.2,10.6,0.2,10.6,0.2c-0.3,40.4-0.1,52.9-0.1,52.9
		C129.7,57.6,126,57.6,126,57.6z"/>
	<path class="st0" d="M139.8,7.9c0-4.1,2.5-6.4,6.7-6.4c4.1,0,6.4,2.8,6.4,6.5c0,3.8-2.2,6.8-6.5,6.8C142,14.8,139.8,12.2,139.8,7.9
		z M141.1,18.7c0,0,3.5,0.1,10.5-0.1c0,0-0.1,14.7,0.3,40c0,0-4.5,0-10.6,0.1C141.3,58.7,141.4,47.9,141.1,18.7z"/>
	<path class="st0" d="M169.4,37.6c0-6.1,0.3-12.4,1-18.6c0,0,2.8,0.4,10,0.7c-0.5,4.8-0.6,10.3-0.6,14.2c0,14,1.2,16.3,3.3,16.3
		c1.7,0,2.9-2.6,2.9-6.5c0.1-13.1-0.6-25.8-0.6-25.8s3.1,0.2,10.8,0.2c0,0-0.1,17.8,0.2,41.9c0,0-2.6-0.2-8.6-0.1
		c0,0,0.1-3.1,0.2-7.2c-1.6,4.2-4.9,6.5-8.4,6.5C172.8,59.4,169.4,54.2,169.4,37.6z"/>
	<path class="st0" d="M216.6,31.9c0-2.6-0.6-3.9-2.2-3.9c-2.2,0-3.3,2.4-3.3,5.6c-0.2,6-0.1,24.1-0.1,24.1s-4.9-0.1-10.7,0
		c0,0,0.3-15.2,0.2-37.9c0,0,3.6,0.2,8.4-0.1c0,0-0.2,3.2-0.1,6c1.7-4.1,5.4-7.3,9.8-7.3c5.5,0,8.1,3.9,8.4,10.9
		c0.2,4.2,0.2,30.8,0.2,30.8c-3.8,0-10.7,0.1-10.7,0.1S216.6,44.5,216.6,31.9z"/>
	<path class="st0" d="M243.3,69.8c0-3.7,2.7-6.9,6.9-8.4c-2.6-1.4-3.7-3.5-3.7-5.8c0-2.2,1.4-4.4,4.1-6.1c-4.6-2.4-6.9-7.5-6.9-15.3
		c0-8.9,4.5-16.5,14-16.5c0.7,0,2,0.2,2,0.2c0.4-2.3,1.3-6.5,2.3-12.8c0,0,3,1,9.6,2.5c0,0-2.4,4.7-6.1,12.7c3.8,2.9,5.7,8.1,5.7,14
		c0,11.6-5.7,16.9-13,16.9c-1,0-1.8,0-2.6-0.2c-0.6,0.6-0.8,1.1-0.8,1.6c0,1.1,1.2,1.8,4.4,2.2c10.2,1.5,14.1,5,14.1,11.3
		c0,8.7-7.7,12.8-15.9,12.8C248.7,78.9,243.3,75.7,243.3,69.8z M256.3,64c-2.2,1.3-3.2,2.9-3.2,4.5c0,2.3,1.9,3.6,4.6,3.6
		c3,0,5.5-1.5,5.5-4.1C263.2,65.6,260.8,64.5,256.3,64z M260.8,34.6c0-6-1-9.6-3.3-9.6c-2.2,0-3.4,3.1-3.4,9.6c0,7,1.2,9.7,3.4,9.7
		C259.6,44.4,260.8,41.7,260.8,34.6z"/>
	<path class="st0" d="M272.9,7.9c0-4.1,2.5-6.4,6.7-6.4c4.1,0,6.4,2.8,6.4,6.5c0,3.8-2.2,6.8-6.5,6.8
		C275.2,14.8,272.9,12.2,272.9,7.9z M274.2,18.7c0,0,3.5,0.1,10.5-0.1c0,0-0.1,14.7,0.3,40c0,0-4.5,0-10.6,0.1
		C274.4,58.7,274.5,47.9,274.2,18.7z"/>
	<path class="st0" d="M288.2,38.4c0-11.9,4.6-20.2,14.6-20.2c10.4,0,14.5,8.5,14.5,20.5c0,14.7-5.2,20.9-14.7,20.9
		C291.7,59.6,288.2,51.1,288.2,38.4z M306.2,38.8c0-9.2-1-13.2-3.3-13.2c-2.6,0-3.4,4.1-3.4,12.8c0,10.9,0.9,14.1,3.4,14.1
		C305.2,52.5,306.2,48.8,306.2,38.8z"/>
	<path class="st0" d="M319.9,39.4c0-12.8,4.6-20.4,15.1-20.4c8.8,0,13.6,5.9,13.3,16.2c-7.7,0.2-10.8,0.3-10.8,0.3
		c0.2-5.7-0.8-8.8-2.9-8.8c-2.2,0-3.6,3.7-3.6,13.1c0,8.8,1.4,12,3.6,12c1.8,0,3.1-2.3,2.9-9.2c0,0,3.4-0.2,10.8-0.6
		c0.2,12.5-4.8,18-13.7,18C325.3,59.9,319.9,54.2,319.9,39.4z"/>
	<path class="st0" d="M380.2,39.9c0,12-5.3,19.9-14.7,19.9c-9.4,0-14.7-7.7-14.7-20.2c0-12.9,5.7-20.5,14.8-20.5
		C374.9,19.1,380.2,26.3,380.2,39.9z M362.1,39.7c0,9.5,1.4,12.8,3.6,12.8c2,0,3.4-3.1,3.4-12.4c0-10-1-13.7-3.5-13.7
		C363.2,26.3,362.1,30.6,362.1,39.7z"/>
</g>
</svg>
