<?xml version="1.0" encoding="utf-8"?>
<!-- Generator: Adobe Illustrator 24.0.2, SVG Export Plug-In . SVG Version: 6.00 Build 0)  -->
<svg version="1.1" id="Capa_1" xmlns="http://www.w3.org/2000/svg" xmlns:xlink="http://www.w3.org/1999/xlink" x="0px" y="0px"
	 viewBox="0 0 410 80" style="enable-background:new 0 0 410 80;" xml:space="preserve">
<style type="text/css">
	.st0{fill:#FFFFFF;}
</style>
<g>
	<path class="st0" d="M18.9,4.7c0,0,7.1-0.1,24.7-0.3c0,0-0.1,4.2,0.1,10.2c0,0-7.2,0.1-13,0.2c0,0-0.1,4.7,0.1,12.4
		c0.7,0,4.5,0.1,11.2-0.1c0,0,0,4.1,0.1,9.7c0,0-4.8-0.1-11.1-0.1C31,40.3,31.1,44,31.3,48c0,0,5.1,0.3,12.7,0.5
		c0,0-0.2,3.3-0.2,9.7c0,0-11.1-0.3-24.2-0.5C19.6,57.7,19.4,35.6,18.9,4.7z"/>
	<path class="st0" d="M47.4,56.8c0.3-34,0.1-50.9,0.1-50.9c7.7,0.2,11.6,0.2,11.6,0.2C58.8,44.9,59,56.9,59,56.9
		C51.4,56.8,47.4,56.8,47.4,56.8z"/>
	<path class="st0" d="M62.5,9c0-3.9,2.7-6.1,7.3-6.1c4.5,0,7,2.7,7,6.2c0,3.7-2.4,6.5-7.1,6.5C65,15.6,62.5,13.1,62.5,9z M63.9,19.3
		c0,0,3.8,0.1,11.5-0.1c0,0-0.1,14.1,0.3,38.5c0,0-4.9,0-11.6,0.1C64.2,57.8,64.3,47.5,63.9,19.3z"/>
	<path class="st0" d="M78.5,68.5c0-3.5,3-6.7,7.6-8.1c-2.8-1.3-4.1-3.4-4.1-5.6c0-2.1,1.6-4.2,4.5-5.9c-5.1-2.3-7.6-7.2-7.6-14.7
		c0-8.6,4.9-15.9,15.3-15.9c0.8,0,2.2,0.2,2.2,0.2c0.4-2.2,1.4-6.3,2.5-12.3c0,0,3.3,0.9,10.6,2.4c0,0-2.6,4.5-6.6,12.2
		c4.2,2.8,6.2,7.8,6.2,13.5c0,11.2-6.2,16.3-14.3,16.3c-1,0-2,0-2.9-0.2c-0.6,0.5-0.9,1.1-0.9,1.5c0,1.1,1.3,1.7,4.8,2.1
		c11.2,1.5,15.5,4.8,15.5,10.9c0,8.4-8.4,12.3-17.4,12.3C84.5,77.2,78.5,74.2,78.5,68.5z M92.8,62.9c-2.4,1.2-3.5,2.8-3.5,4.4
		c0,2.2,2.1,3.5,5.1,3.5c3.3,0,6-1.5,6-4C100.4,64.5,97.8,63.4,92.8,62.9z M97.8,34.7c0-5.8-1.1-9.3-3.6-9.3c-2.4,0-3.8,3-3.8,9.3
		c0,6.7,1.3,9.4,3.8,9.4C96.4,44,97.8,41.4,97.8,34.7z"/>
	<path class="st0" d="M111.3,38.4c0-11,4.4-19.5,15.8-19.5c12.8,0,16.1,9.7,15.2,22.6c0,0-7.5,0.1-19.1,0.2c0.3,6.8,1.5,9.7,4.1,9.7
		c2.2,0,3.3-2.2,3.5-6.9c0,0,5.9,0.1,11.8,0.2c-1,8.8-6.6,14-15.4,14C114.7,58.8,111.3,50.1,111.3,38.4z M123.3,35.7
		c2.4,0,4.6-0.1,7.1-0.2c0.1-6.2-0.9-9.8-3.3-9.8C124.6,25.8,123.5,29.1,123.3,35.7z"/>
	<path class="st0" d="M161.1,37.5c0-5.9,0.3-11.9,1.1-17.9c0,0,3.1,0.4,10.9,0.7c-0.5,4.6-0.7,9.9-0.7,13.7
		c0,13.4,1.3,15.7,3.6,15.7c1.8,0,3.1-2.5,3.1-6.2c0.1-12.6-0.6-24.8-0.6-24.8s3.4,0.2,11.8,0.2c0,0-0.1,17.1,0.2,40.3
		c0,0-2.9-0.2-9.4-0.1c0,0,0.1-3,0.2-6.9c-1.7,4.1-5.4,6.3-9.2,6.3C164.8,58.5,161.1,53.5,161.1,37.5z"/>
	<path class="st0" d="M212.8,32.1c0-2.5-0.6-3.8-2.4-3.8c-2.4,0-3.6,2.3-3.6,5.4c-0.2,5.8-0.1,23.2-0.1,23.2s-5.4-0.1-11.7,0
		c0,0,0.4-14.7,0.2-36.4c0,0,3.9,0.2,9.2-0.1c0,0-0.2,3.1-0.1,5.8c1.8-4,5.9-7,10.8-7c6,0,8.9,3.8,9.2,10.5
		c0.2,4.1,0.2,29.6,0.2,29.6c-4.2,0-11.7,0.1-11.7,0.1S212.8,44.2,212.8,32.1z"/>
	<path class="st0" d="M235.5,65.1c0.8,0.1,1.5,0.2,2.1,0.2c4.9,0,6.6-2.1,6.6-6.4c0.3-14.2-0.1-39.5-0.1-39.5
		c7.4,0,11.3-0.1,11.3-0.1s0.7,17.5,0.3,41c-0.2,8.9-4.6,14.6-17.1,14.6c-1.1,0-2.3-0.1-3.5-0.2C235.1,74.7,235.4,71.1,235.5,65.1z
		 M242.6,9.1c0-3.8,2.3-6.4,7.3-6.4c4.5,0,7.2,2.5,7.2,6.2c0,3.9-2.7,6.6-7.3,6.6C244.6,15.6,242.6,12.5,242.6,9.1z"/>
	<path class="st0" d="M260,37.5c0-5.9,0.3-11.2,1-17.2c0,0,3.1,0.5,10.9,0.7c-0.5,4.6-0.5,9.2-0.5,13c0,13.4,1.3,14.8,3.6,14.8
		c1.8,0,3.1-2.5,3.1-6.2c0.1-12.6-0.4-22.3-0.4-22.3s3.4,0.2,11.8,0.2c0,0-0.3,14.3,0,37.6c0,0-2.9-0.2-9.4-0.1c0,0,0.1-2.8,0.2-6.6
		c-1.7,4.1-5.4,6.3-9.2,6.3C263.6,57.6,260,53.2,260,37.5z"/>
	<path class="st0" d="M293.1,38.4c0-11,4.4-19.5,15.8-19.5c12.8,0,16.1,9.7,15.2,22.6c0,0-7.5,0.1-19.1,0.2c0.3,6.8,1.5,9.7,4.1,9.7
		c2.2,0,3.3-2.2,3.5-6.9c0,0,5.9,0.1,11.8,0.2c-1,8.8-6.6,14-15.4,14C296.5,58.8,293.1,50.1,293.1,38.4z M305.1,35.7
		c2.4,0,4.6-0.1,7.1-0.2c0.1-6.2-0.9-9.8-3.3-9.8S305.3,29.1,305.1,35.7z"/>
	<path class="st0" d="M326.4,68.5c0-3.5,3-6.7,7.6-8.1c-2.8-1.3-4.1-3.4-4.1-5.6c0-2.1,1.6-4.2,4.5-5.9c-5.1-2.3-7.6-7.2-7.6-14.7
		c0-8.6,4.9-15.9,15.3-15.9c0.8,0,2.2,0.2,2.2,0.2c0.4-2.2,1.4-6.3,2.5-12.3c0,0,3.3,0.9,10.6,2.4c0,0-2.6,4.5-6.6,12.2
		c4.2,2.8,6.2,7.8,6.2,13.5c0,11.2-6.2,16.3-14.3,16.3c-1,0-2,0-2.9-0.2c-0.6,0.5-0.9,1.1-0.9,1.5c0,1.1,1.3,1.7,4.8,2.1
		c11.2,1.5,15.5,4.8,15.5,10.9c0,8.4-8.4,12.3-17.4,12.3C332.4,77.2,326.4,74.2,326.4,68.5z M340.7,62.9c-2.4,1.2-3.5,2.8-3.5,4.4
		c0,2.2,2.1,3.5,5.1,3.5c3.3,0,6-1.5,6-4C348.3,64.5,345.6,63.4,340.7,62.9z M345.6,34.7c0-5.8-1.1-9.3-3.6-9.3
		c-2.4,0-3.8,3-3.8,9.3c0,6.7,1.3,9.4,3.8,9.4C344.3,44,345.6,41.4,345.6,34.7z"/>
	<path class="st0" d="M359.2,38.3c0-11.4,5.1-19.4,16-19.4c11.4,0,15.9,8.2,15.9,19.7c0,14.1-5.7,20.1-16.1,20.1
		C363,58.7,359.2,50.5,359.2,38.3z M378.9,38.7c0-8.9-1-12.7-3.7-12.7c-2.8,0-3.8,3.9-3.8,12.3c0,10.5,1,13.6,3.8,13.6
		C377.8,51.9,378.9,48.3,378.9,38.7z"/>
</g>
</svg>
