<?xml version="1.0" encoding="utf-8"?>
<!-- Generator: Adobe Illustrator 24.0.2, SVG Export Plug-In . SVG Version: 6.00 Build 0)  -->
<svg version="1.1" id="Capa_1" xmlns="http://www.w3.org/2000/svg" xmlns:xlink="http://www.w3.org/1999/xlink" x="0px" y="0px"
	 viewBox="0 0 226.8 45.4" style="enable-background:new 0 0 226.8 45.4;" xml:space="preserve">
<style type="text/css">
	.st0{fill:#FFFFFF;}
</style>
<g>
	<path class="st0" d="M4.3,30.8c0-6.5,2.7-9.4,6.9-10.6c0-2,0-4.1,0-4.1c3.9,0.1,6.5-0.1,6.5-0.1c0,4.6,0.1,8.2,0.1,8.2
		c-5.1,0.1-6.5,1.9-6.5,5.9c0,3.3,0.6,5,1.8,5c1.8,0,2.1-2.6,1.7-7.3c0,0,2.7-0.1,6.6-0.3c0.9,8.7-1.9,12.8-9,12.8
		C6.9,40.3,4.3,36.3,4.3,30.8z M10.2,9.7c0-2.6,1.6-4.3,4.2-4.3c3,0,4.5,1.8,4.5,4.5s-1.8,4.3-4.3,4.3C11.6,14.2,10.2,12.4,10.2,9.7
		z"/>
	<path class="st0" d="M23.3,1.6c0,0,3.9,0,13.7-0.2c0,0,0,2.7,0,6.4c0,0-4,0-7.2,0.1c0,0,0,3,0,7.8c0.4,0,2.5,0,6.2,0
		c0,0,0,2.6,0,6.1c0,0-2.7,0-6.1,0c0,2.2,0.1,4.5,0.2,7.1c0,0,2.8,0.2,7,0.3c0,0-0.1,2.1-0.1,6.1c0,0-6.1-0.2-13.4-0.3
		C23.7,35,23.6,21.1,23.3,1.6z"/>
	<path class="st0" d="M39,11.3c0,0,2.2,0,5.3,0c0,0-0.1,1.5-0.1,3.5c1.2-2.5,3.2-4.2,5.8-4.2c2.8,0,4.2,1.8,4.7,4.1
		c1-2.2,3-3.7,5.5-3.7c3.5,0,4.8,2.8,4.8,6.5c0.1,8.2,0.1,18.4,0.1,18.4s-2.2,0-6.4,0c0,0,0-9.6-0.1-16.7c0-1.7-0.4-2.6-1.3-2.6
		c-1.4,0-1.9,1.5-1.9,3.6c-0.1,6.4,0,13.7,0,13.7s-3.1,0-6.6,0c0,0,0.1-8.7,0-14.7c0-1.7-0.3-2.8-1.4-2.8c-1.3,0-2,1.7-2,3.9
		c0,5.7,0.1,14,0.1,14s-3.4,0-6.5,0C39.1,34.4,39.1,24.8,39,11.3z"/>
	<path class="st0" d="M67.3,11.5c2.8,0,5.2,0,5.2,0c-0.1,1.8-0.1,2.6-0.1,3.5c0.9-2.7,2.8-4.5,5.5-4.5c4.6,0,7,5.2,7,12.8
		c0,8.6-2.8,12.2-6.6,12.2c-2.2,0-3.9-1-4.7-2.8c0.2,9,0.4,12.1,0.4,12.1c-4.7-0.2-6.7,0-6.7,0C67.5,29.7,67.3,11.5,67.3,11.5z
		 M77.9,23.2c0-5.8-0.6-8.2-1.9-8.2c-1.6,0-2.1,2.8-2.1,8c0,6.1,0.5,8,2,8C77.2,31.1,77.9,29.2,77.9,23.2z"/>
	<path class="st0" d="M86.5,23.2c0-6.6,2.5-11.8,8.8-11.8c7,0,8.9,5.8,8.4,14.1c0,0-4.2,0-10.5,0.1c0.2,3.9,0.9,5.3,2.3,5.3
		c1.2,0,1.8-0.9,1.9-3.9c0,0,2.9,0.3,6.5,0.5c-0.4,4.5-3.2,8-8.5,8C89.4,35.5,86.5,31.7,86.5,23.2z M93.1,21.8c1.3,0,2.6,0,3.9-0.1
		c0-5-0.6-6-1.8-6C93.8,15.7,93.2,17.5,93.1,21.8z"/>
	<path class="st0" d="M105.2,34.7c0.1-3.1,0.1-4.7,0.1-4.7c5.1-9.4,6.7-13,6.7-13c-4.7,0-6.3,0.2-6.3,0.2c0-4.4-0.2-6-0.2-6
		c9.3-0.1,13.7-0.3,13.7-0.3c0,4.3,0.1,5.2,0.1,5.2c-5,9-6.9,13.3-6.9,13.3c5.3,0.2,6.9,0.2,6.9,0.2c-0.1,4.8-0.1,5.5-0.1,5.5
		C109.3,34.7,105.2,34.7,105.2,34.7z"/>
	<path class="st0" d="M120.2,29.4c0-5.3,3.7-8.2,10.2-8.7c0,0,0-0.9,0-1.5c-0.1-2.9-0.5-3.8-1.6-3.8c-1.3,0-1.8,1.5-1.7,4.3
		c0,0-2.4,0.1-6,0c-0.2-5.2,2.3-9,8-9c5.3,0,7.5,3.3,7.7,8.8c0.2,8.8,0,16.2,0,16.2s-1.5,0-4.9,0.1c0,0,0.1-1.6,0.2-3.6
		c-1,2.6-3.2,3.5-5.7,3.5C122.8,35.6,120.2,33.3,120.2,29.4z M130.6,24c-3.1,0.5-4.2,2.5-4.2,4.5c0,1.5,0.5,2.5,1.9,2.5
		c1.3,0,2.3-1.1,2.3-5.1C130.7,25.3,130.7,24.6,130.6,24z"/>
	<path class="st0" d="M138.9,12c0,0,2.2,0,5.3,0c0,0-0.1,1.4-0.1,3.2c1.2-2.5,3.2-4.2,5.8-4.2c2.8,0,4.2,1.8,4.7,4.2
		c1.1-2.2,3-3.6,5.5-3.6c3.5,0,4.8,2.8,4.8,6.4c0.1,8.2,0.1,16.7,0.1,16.7s-2.2,0-6.4,0c0,0,0-7.9-0.1-15c0-1.6-0.4-2.6-1.3-2.6
		c-1.4,0-1.9,1.5-1.9,3.6c-0.1,6.4,0,14.6,0,14.6s-3.1,0-6.6,0c0,0,0.1-9.7,0-15.7c0-1.7-0.3-2.8-1.4-2.8c-1.3,0-2,1.7-2,3.9
		c0,5.8,0.1,14,0.1,14s-3.4,0-6.5,0C139.1,34.8,139.1,25.5,138.9,12z"/>
	<path class="st0" d="M166.9,22.8c0-7.2,2.8-12.2,8.9-12.2c6.3,0,8.8,5.2,8.8,12.4c0,8.9-3.1,12.7-8.9,12.7
		C169,35.6,166.9,30.5,166.9,22.8z M177.7,23c0-5.6-0.6-8-2-8c-1.5,0-2.1,2.5-2.1,7.8c0,6.6,0.5,8.6,2.1,8.6
		C177.2,31.3,177.7,29.1,177.7,23z"/>
	<path class="st0" d="M185.9,26.4c0,0,2.1,0,6.1,0.3c-0.2,2.9,0.3,4.3,2,4.3c0.9,0,1.7-0.6,1.7-2.2c0-1.2-0.4-2.2-4.1-3.7
		c-4-1.6-5.8-3.9-5.8-7.8c0-3.8,2.8-7,7.9-7c5.4,0,7.9,3.8,7.6,9.6c0,0-2.6-0.1-5.9-0.1c0.2-2.8-0.2-4.6-1.8-4.6
		c-1.3,0-1.9,1-1.9,2.2c0,1.7,0.9,2.7,4,4.1c4.7,2.1,5.9,4.3,5.9,7.4c0,5-3.6,7-7.8,7C188.6,35.8,185.5,32.9,185.9,26.4z"/>
	<path class="st0" d="M205.8,17c5.1-0.1,6.5-1.9,6.5-5.9c0-3.3-0.6-5-1.9-5c-1.8,0-2,2.7-1.7,7.3l-6.6,0.2
		c-0.9-8.8,1.9-12.8,8.9-12.8c5.7,0,8.4,4,8.4,9.5c0,6.5-2.7,9.4-7,10.6c0,2,0,4.1,0,4.1c-3.9,0-6.5,0.1-6.5,0.1
		C205.9,20.5,205.8,17,205.8,17z M204.7,31.2c0-2.7,1.9-4.3,4.3-4.3c2.9,0,4.3,1.7,4.3,4.4c0,2.6-1.6,4.3-4.2,4.3
		C206.2,35.6,204.7,33.7,204.7,31.2z"/>
</g>
</svg>
