<?xml version="1.0" encoding="utf-8"?>
<!-- Generator: Adobe Illustrator 24.0.2, SVG Export Plug-In . SVG Version: 6.00 Build 0)  -->
<svg version="1.1" id="Capa_1" xmlns="http://www.w3.org/2000/svg" xmlns:xlink="http://www.w3.org/1999/xlink" x="0px" y="0px"
	 viewBox="0 0 500 500" style="enable-background:new 0 0 500 500;" xml:space="preserve">
<style type="text/css">
	.st0{fill:#FFFFFF;}
</style>
<g id="YO7X8y_1_">
	<g>
		<path class="st0" d="M391.7,325.3c-0.8-1.1-1.5-2.2-2.3-3.2c-21.4-29.2-42.8-58.3-64.2-87.5C276.8,168.7,228.5,102.8,180,37
			c-1.2-1.7-3.3-3.1-5.2-3.6C140.4,25.3,106,17.4,71.6,9.4C66,8.1,60.4,6.8,54.4,5.5c0.1,1.2,0.1,2,0.3,2.7
			c8.2,44,16.4,87.9,24.7,131.8c0.4,1.9,1.5,4,2.9,5.3c85.2,77.8,170.5,155.6,255.8,233.3c1.1,1,2.2,1.9,3.2,2.8
			C358.2,362.6,374.8,344.1,391.7,325.3z M334.4,217.6c0.7-0.6,1.2-0.9,1.7-1.4c26.1-23.8,52.2-47.5,78.2-71.4
			c1.2-1.1,2.1-3.1,2.4-4.9C424.9,97,432.9,54,441,10.9c0.3-1.6,0.5-3.3,0.8-5.3c-1.4,0.2-2.4,0.4-3.4,0.6
			c-39.2,9.1-78.5,18.2-117.7,27.4c-1.5,0.3-3.1,1.4-4,2.7c-18.6,25.2-37.1,50.5-55.7,75.6c-1.8,2.4-1.5,3.8,0.1,6
			c19.6,26.6,39.2,53.3,58.8,80C324.7,204.4,329.5,211,334.4,217.6z M5,427.5c19.3,21.5,38.8,43.2,58,64.5c3.4-3.6,7-7.4,11.1-11.7
			c-4.6-4.9-9.1-9.7-13.3-14.1c18.6-20.8,37-41.2,55.9-62.3c11.6,13.1,23.4,26.4,35.1,39.5c7.8-8.7,15.5-17.3,22.9-25.5
			c-34.3-38.2-68.7-76.6-102.9-114.7c-7.5,8.3-15.2,16.9-23.1,25.6c11.9,13.1,23.9,26.3,35.6,39.3c-18.7,20.9-37.1,41.4-55.9,62.3
			c-4.2-4.8-8.6-9.9-12.8-14.8C11.7,420,8.2,423.9,5,427.5z M467.9,430.4c-18.8-20.9-37.2-41.4-56.1-62.5c11.8-13,23.8-26.2,35.3-39
			c-7.7-8.7-15.3-17.3-22.5-25.5C390.3,341.7,355.8,380,321.8,418c7.4,8.3,15,16.9,23.1,26c11.7-13.2,23.6-26.6,35.1-39.5
			c18.6,20.6,37,41.1,55.9,62c-4.3,4.6-8.9,9.4-13.3,14.1c3.8,4.3,7.3,8.3,10.4,11.8c19.5-21.7,39-43.3,58.1-64.6
			c-3.3-3.7-6.8-7.6-10.8-12.1C476.2,420.5,471.9,425.6,467.9,430.4z M234.9,308.6c-23.8-21.7-47.2-43-70.8-64.5
			c-20.1,27.3-39.9,54.3-59.3,80.7c16.9,19,33.6,37.6,50.4,56.4C181.5,357.2,207.9,333.1,234.9,308.6z"/>
		<path d="M391.7,325.3c-16.9,18.8-33.5,37.3-50.4,56.1c-1-0.8-2.1-1.8-3.2-2.8c-85.3-77.7-170.6-155.5-255.8-233.3
			c-1.4-1.2-2.5-3.4-2.9-5.3C71.1,96.1,62.9,52.2,54.7,8.2c-0.1-0.7-0.2-1.5-0.3-2.7C60.4,6.8,66,8.1,71.6,9.4
			c34.4,8,68.8,15.9,103.2,24.1c1.9,0.5,4,1.9,5.2,3.6c48.4,65.8,96.8,131.7,145.1,197.6c21.4,29.2,42.8,58.3,64.2,87.5
			C390.2,323.1,390.9,324.2,391.7,325.3z"/>
		<path d="M334.4,217.6c-4.9-6.7-9.7-13.2-14.5-19.8c-19.6-26.7-39.1-53.4-58.8-80c-1.6-2.2-1.9-3.6-0.1-6
			c18.6-25.2,37.1-50.5,55.7-75.6c0.9-1.3,2.6-2.4,4-2.7c39.2-9.2,78.5-18.3,117.7-27.4c1-0.2,2-0.4,3.4-0.6c-0.3,2-0.5,3.7-0.8,5.3
			c-8,43-16.1,86.1-24.2,129.1c-0.3,1.8-1.2,3.8-2.4,4.9c-26,23.9-52.1,47.6-78.2,71.4C335.7,216.7,335.2,217.1,334.4,217.6z"/>
		<path d="M5,427.5c3.2-3.6,6.7-7.6,10.5-11.8c4.3,4.9,8.6,9.9,12.8,14.8c18.8-20.9,37.1-41.4,55.9-62.3
			c-11.7-12.9-23.7-26.2-35.6-39.3c7.9-8.8,15.6-17.3,23.1-25.6c34.2,38.2,68.7,76.5,102.9,114.7c-7.4,8.2-15.1,16.8-22.9,25.5
			c-11.6-13.1-23.5-26.5-35.1-39.5c-18.9,21-37.3,41.5-55.9,62.3c4.2,4.4,8.7,9.2,13.3,14.1c-4.1,4.3-7.8,8.2-11.1,11.7
			C43.8,470.8,24.3,449.1,5,427.5z"/>
		<path d="M467.9,430.4c4-4.8,8.3-9.9,12.3-14.8c4,4.5,7.5,8.4,10.8,12.1c-19.1,21.2-38.6,42.9-58.1,64.6
			c-3.1-3.5-6.6-7.5-10.4-11.8c4.4-4.7,8.9-9.5,13.3-14.1c-18.9-20.9-37.3-41.4-55.9-62c-11.5,13-23.4,26.3-35.1,39.5
			c-8-9.1-15.7-17.7-23.1-26c34.1-37.9,68.5-76.3,102.9-114.6c7.2,8.2,14.8,16.8,22.5,25.5c-11.6,12.8-23.5,26-35.3,39
			C430.7,389,449.1,409.5,467.9,430.4z"/>
		<path d="M234.9,308.6c-26.9,24.5-53.4,48.7-79.7,72.6c-16.8-18.8-33.5-37.4-50.4-56.4c19.4-26.4,39.2-53.4,59.3-80.7
			C187.7,265.6,211.1,286.9,234.9,308.6z"/>
	</g>
</g>
</svg>
