<?xml version="1.0" encoding="utf-8"?>
<!-- Generator: Adobe Illustrator 27.0.0, SVG Export Plug-In . SVG Version: 6.00 Build 0)  -->
<svg version="1.1" id="Capa_1" xmlns="http://www.w3.org/2000/svg" xmlns:xlink="http://www.w3.org/1999/xlink" x="0px" y="0px"
	 viewBox="0 0 235.3 56.7" style="enable-background:new 0 0 235.3 56.7;" xml:space="preserve">
<style type="text/css">
	.st0{fill:#FFFFFF;}
</style>
<g>
	<path class="st0" d="M12.7,33c-0.8,0-1.9,0-3.7,0l0.1,9.2c0,0-2.7-0.1-6.4,0c0,0,0-11.3-0.2-28.4c0,0,1.6,0,6.3,0
		c0,0,0,5.7,0.1,14.2c0.6,0,1.7,0,3.7,0c0-4.5-0.1-9.8-0.1-15.5c0,0,2.3,0,6.5,0c0,0,0,13.8,0.1,31.3c0,0-2.6-0.2-6.5,0
		C12.7,43.7,12.8,39.4,12.7,33z"/>
	<path class="st0" d="M21.3,32c0-6.4,2.7-10.8,8.6-10.8c6.1,0,8.6,4.6,8.6,11c0,7.9-3.1,11.2-8.7,11.2C23.4,43.4,21.3,38.8,21.3,32z
		 M31.9,32.2c0-5-0.6-7.1-2-7.1c-1.5,0-2,2.2-2,6.9c0,5.9,0.5,7.6,2,7.6C31.4,39.6,31.9,37.6,31.9,32.2z"/>
	<path class="st0" d="M40.8,42.3c0.2-18.9,0-28.4,0-28.4C45,14,47.2,14,47.2,14c-0.2,21.7,0,28.4,0,28.4
		C43,42.3,40.8,42.3,40.8,42.3z"/>
	<path class="st0" d="M49,37.9c0-4.7,3.6-7.3,10-7.7c0,0,0-0.8,0-1.4c-0.1-2.5-0.5-3.4-1.6-3.4c-1.3,0-1.7,1.3-1.7,3.8
		c0,0-2.4,0.1-5.9,0c-0.2-4.6,2.2-8,7.8-8c5.2,0,7.4,3,7.5,7.7c0.2,7.7,0,14.3,0,14.3s-1.4,0-4.8,0.1c0,0,0.1-1.4,0.2-3.2
		c-0.9,2.3-3.2,3.1-5.5,3.1C51.6,43.4,49,41.4,49,37.9z M59.2,33.1c-3,0.4-4.1,2.2-4.1,4c0,1.3,0.5,2.2,1.8,2.2c1.2,0,2.3-1,2.3-4.5
		C59.3,34.2,59.3,33.6,59.2,33.1z"/>
	<path class="st0" d="M68.2,13.9c0,0,4.2,0,9.2-0.2c0,0,1,8.1,2.5,16.8c0.8-4.5,1.9-11.3,2.7-18c0,0,5,0.1,9.4,0.3
		c0,0,0.1,12,1.1,30.7c0,0-3.4,0.2-6.7,0.3c0,0,0.2-10.3-0.3-24.7c-0.8,4.6-2,11.8-2.9,18.6c0,0-3.4,0-6.5-0.2c0,0-0.9-6.5-2.8-17.3
		c0,5.1-0.1,14.2,0,22.4c0,0-4-0.1-6.8-0.1C67.1,42.4,67.8,30.1,68.2,13.9z"/>
	<path class="st0" d="M94.5,38c0-4.4,2.9-7.5,10-7.8c0,0,0-0.5,0-0.9c-0.1-2.5-0.5-3.4-1.6-3.4c-1.3,0-1.7,1.2-1.7,3.5
		c0,0-2.4-0.3-5.9-0.4c0-4.9,2.5-7.2,7.8-7.2c5.2,0,7.4,3,7.5,7.7c0.2,7.7,0,14.6,0,14.6s-1.4,0-4.8,0.1c0,0,0.1-1.6,0.2-3.5
		c-0.9,2.2-3.2,3.1-5.5,3.1C97.7,43.8,94.5,42.2,94.5,38z M104.7,33.1c-2.9,0.3-4.1,1.8-4.1,4.2c0,1.6,0.7,2.5,1.8,2.5
		c1.5,0,2.3-1.2,2.3-4.5C104.8,34.6,104.7,33.1,104.7,33.1z"/>
	<path class="st0" d="M112.1,22c0.8,0,1.6,0,2.3,0c0-3.3,0.1-5.5,0.1-5.5c4.3,0.1,6.1,0,6.1,0s-0.1,2.3-0.1,5.5c2.4,0,3.9,0,3.9,0
		c-0.1,4,0,5,0,5c-1.4,0-2.6,0-3.9,0c0,2.6,0,5.3,0.1,8c0,1.5,0.8,2.3,2.4,2.3c0.4,0,0.9,0,1.5-0.2l0.4,5.3c-1.5,0.3-2.8,0.5-4,0.5
		c-4,0-6.4-1.8-6.4-6.2c0-3.5-0.1-6.8,0-9.7c-1,0-2.2,0-2.2,0C112.2,23.3,112.1,22,112.1,22z"/>
	<path class="st0" d="M125.8,32.1c0-6.1,2.4-10.9,8.6-10.9c6.9,0,8.7,5.4,8.2,12.6c0,0-4.1,0-10.3,0.1c0.1,3.8,0.8,5.4,2.2,5.4
		c1.2,0,1.8-1.2,1.9-3.8c0,0,3.2,0,6.4,0.1c-0.5,4.9-3.6,7.8-8.3,7.8C127.7,43.4,125.8,38.6,125.8,32.1z M132.3,30.6
		c1.3,0,2.5,0,3.8-0.1c0-3.5-0.5-5.5-1.8-5.5C133,25,132.4,26.9,132.3,30.6z"/>
	<path class="st0" d="M144.3,35.2c0,0,2,0,6,0.3c-0.2,2.6,0.3,3.8,1.9,3.8c0.9,0,1.7-0.6,1.7-2c0-1-0.4-2-4-3.3
		c-3.9-1.4-5.6-3.5-5.6-6.9c0-3.4,2.7-6.2,7.7-6.2c5.3,0,7.7,3.4,7.4,8.5c0,0-2.5-0.1-5.7-0.1c0.2-2.4-0.2-4.1-1.7-4.1
		c-1.2,0-1.8,0.9-1.8,1.9c0,1.5,0.9,2.4,3.9,3.6c4.6,1.8,5.8,3.8,5.8,6.5c0,4.4-3.5,6.2-7.6,6.2C147,43.5,144,40.9,144.3,35.2z"/>
	<path class="st0" d="M161,39.5c0-2.2,1.4-3.5,3.5-3.5c2.3,0,3.5,1.6,3.5,3.5c0,2.6-1.6,3.6-3.5,3.6C162.1,43.1,161,41.4,161,39.5z"
		/>
	<path class="st0" d="M169.1,32.2c0-6.8,2.9-11.1,8.8-11.1c5.6,0,8.3,4.1,7.8,9.5c-4.5-0.1-6.3-0.1-6.3-0.1c0.1-3.4-0.5-5.1-1.7-5.1
		c-1.4,0-2,2.1-2,7.1c0,4.7,0.7,6.5,2,6.5c1.1,0,1.9-1.2,1.7-5c0,0,1.5,0,6.4-0.1c0.1,7.4-3.5,9.5-8.1,9.5
		C171.6,43.4,169.1,39.4,169.1,32.2z"/>
	<path class="st0" d="M205,32.8c0,6.5-3.1,10.6-8.7,10.6c-5.6,0-8.7-4.1-8.7-10.8c0-6.9,3.4-11,8.8-11C201.8,21.6,205,25.5,205,32.8
		z M194.2,32.7c0,5.1,0.8,6.9,2.1,6.9c1.2,0,2-1.7,2-6.7c0-5.4-0.6-7.4-2.1-7.4C194.9,25.5,194.2,27.8,194.2,32.7z"/>
	<path class="st0" d="M207.2,21.8c0,0,2.2,0,5.2,0c0,0-0.1,1.3-0.1,3.1c1.1-2.2,3.1-3.7,5.7-3.7c2.7,0,4.1,1.6,4.6,3.6
		c1-2,2.9-3.3,5.4-3.3c3.4,0,4.7,2.4,4.7,5.7c0.1,7.2,0.1,16.3,0.1,16.3s-2.1,0-6.2,0c0,0,0-8.5-0.1-14.8c0-1.5-0.4-2.3-1.3-2.3
		c-1.3,0-1.9,1.3-1.9,3.2c-0.1,5.6,0,12.1,0,12.1s-3,0-6.4,0c0,0,0.1-7.7,0-13c0-1.5-0.3-2.4-1.3-2.4c-1.3,0-2,1.5-2,3.5
		c0,5,0.1,12.4,0.1,12.4s-3.3,0-6.3,0C207.3,42.3,207.3,33.8,207.2,21.8z"/>
</g>
</svg>
