<?xml version="1.0" encoding="utf-8"?>
<!-- Generator: Adobe Illustrator 24.0.2, SVG Export Plug-In . SVG Version: 6.00 Build 0)  -->
<svg version="1.1" id="Capa_1" xmlns="http://www.w3.org/2000/svg" xmlns:xlink="http://www.w3.org/1999/xlink" x="0px" y="0px"
	 viewBox="0 0 235.3 56.7" style="enable-background:new 0 0 235.3 56.7;" xml:space="preserve">
<style type="text/css">
	.st0{fill:#FFFFFF;}
</style>
<g>
	<path class="st0" d="M16.6,36c-1.2,0-2.8,0-5.5,0.1l0.2,15.2c0,0-4.1-0.1-9.5,0.1c0,0,0-18.6-0.3-46.7c0,0,2.3,0.1,9.3-0.1
		c0,0,0.1,9.4,0.2,23.3c0.9,0,2.6,0.1,5.5,0.1c0-7.4-0.1-16.1-0.2-25.6c0,0,3.5,0.1,9.7-0.1c0,0-0.1,22.7,0.2,51.6
		c0,0-3.8-0.3-9.7-0.1C16.6,53.8,16.7,46.6,16.6,36z"/>
	<path class="st0" d="M29,34.3c0-10.5,4.1-17.8,12.9-17.8c9.1,0,12.8,7.5,12.8,18.1c0,13-4.6,18.4-13,18.4
		C32.1,53.1,29,45.6,29,34.3z M44.9,34.7c0-8.1-0.9-11.7-2.9-11.7c-2.3,0-3,3.6-3,11.4c0,9.7,0.8,12.5,3,12.5
		C44,46.8,44.9,43.6,44.9,34.7z"/>
	<path class="st0" d="M57.8,51.4C58,20.2,57.8,4.6,57.8,4.6c6.2,0.2,9.3,0.2,9.3,0.2c-0.3,35.7-0.1,46.7-0.1,46.7
		C61,51.4,57.8,51.4,57.8,51.4z"/>
	<path class="st0" d="M69.6,44.1c0-7.7,5.3-12,14.9-12.7c0,0-0.1-1.3-0.1-2.3c-0.1-4.1-0.7-5.5-2.3-5.5c-1.9,0-2.6,2.2-2.5,6.3
		c0,0-3.5,0.1-8.8,0.1c-0.3-7.5,3.3-13.1,11.7-13.1c7.7,0,11,4.9,11.2,12.8c0.3,12.8,0.1,23.6,0.1,23.6s-2.1,0.1-7.1,0.1
		c0,0,0.2-2.3,0.3-5.3c-1.4,3.7-4.7,5.1-8.2,5.1C73.4,53.1,69.6,49.8,69.6,44.1z M84.8,36.2c-4.5,0.7-6.1,3.6-6.1,6.5
		c0,2.1,0.8,3.7,2.7,3.7c1.8,0,3.4-1.6,3.4-7.5C84.9,38,84.9,37.1,84.8,36.2z"/>
	<path class="st0" d="M97.8,4.6c0,0,6.2,0.1,13.7-0.3c0,0,1.5,13.3,3.7,27.7c1.2-7.5,2.8-18.6,4-29.7c0,0,7.4,0.2,14.1,0.4
		c0,0,0.1,19.7,1.7,50.6c0,0-5.1,0.3-9.9,0.4c0,0,0.3-17-0.5-40.7c-1.2,7.5-3,19.4-4.3,30.7c0,0-5.1-0.1-9.7-0.3
		c0,0-1.3-10.6-4.1-28.5c-0.1,8.5-0.1,23.3,0,36.9c0,0-5.9-0.1-10.1-0.2C96.3,51.5,97.3,31.3,97.8,4.6z"/>
	<path class="st0" d="M136.8,44.2c0-7.3,4.3-12.4,14.9-12.8c0,0,0-0.9-0.1-1.5c-0.2-4.1-0.7-5.5-2.3-5.5c-1.9,0-2.6,2-2.5,5.9
		c0,0-3.6-0.5-8.8-0.7c0-8,3.7-11.9,11.7-11.9c7.7,0,11,4.9,11.2,12.8c0.3,12.8,0.1,24.1,0.1,24.1s-2.1,0.1-7.1,0.1
		c0,0,0.2-2.6,0.3-5.8c-1.4,3.7-4.7,5.1-8.2,5.1C141.5,53.8,136.8,51.2,136.8,44.2z M152,36.1c-4.3,0.4-6.1,2.9-6.1,6.9
		c0,2.6,1.1,4.1,2.7,4.1c2.2,0,3.4-2.1,3.4-7.5C152,38.6,152,36.1,152,36.1z"/>
	<path class="st0" d="M162.7,18c1.2,0.1,2.3,0.1,3.5,0.1c0.1-5.5,0.1-9,0.1-9c6.5,0.1,9.1,0.1,9.1,0.1s-0.1,3.7-0.2,9.1
		c3.5,0.1,5.9,0,5.9,0c-0.1,6.6-0.1,8.1-0.1,8.1c-2.1-0.1-3.9-0.1-5.8-0.1c0,4.2,0,8.7,0.1,13.2c0.1,2.5,1.2,3.7,3.5,3.7
		c0.6,0,1.4-0.1,2.3-0.3l0.5,8.7c-2.2,0.5-4.1,0.9-5.9,0.9c-5.9,0-9.5-2.9-9.5-10.2c-0.1-5.8-0.1-11.2-0.1-15.9
		c-1.5-0.1-3.3,0-3.3,0C162.8,20,162.7,18,162.7,18z"/>
	<path class="st0" d="M182.8,34.5c0-10.1,3.5-17.9,12.8-17.9c10.3,0,13,8.9,12.3,20.7c0,0-6.1,0.1-15.4,0.2c0.2,6.3,1.2,8.9,3.3,8.9
		c1.7,0,2.7-2.1,2.8-6.3c0,0,4.8,0.1,9.5,0.2c-0.8,8.1-5.3,12.9-12.4,12.9C185.5,53.2,182.8,45.2,182.8,34.5z M192.4,32.1
		c1.9,0,3.7-0.1,5.7-0.1c0.1-5.7-0.7-9-2.7-9C193.5,22.9,192.6,26,192.4,32.1z"/>
	<path class="st0" d="M209.9,39.8c0,0,3,0.1,8.9,0.4c-0.3,4.2,0.5,6.3,2.9,6.3c1.3,0,2.5-0.9,2.5-3.3c0-1.7-0.6-3.3-6-5.4
		c-5.8-2.3-8.4-5.7-8.4-11.4c0-5.5,4-10.2,11.6-10.2c7.9,0,11.6,5.5,11.1,14c0,0-3.7-0.2-8.5-0.2c0.3-4-0.3-6.7-2.6-6.7
		c-1.8,0-2.7,1.5-2.7,3.1c0,2.5,1.3,3.9,5.9,5.9c6.8,3,8.6,6.2,8.6,10.7c0,7.3-5.2,10.2-11.4,10.2C214,53.3,209.5,49.1,209.9,39.8z"
		/>
</g>
</svg>
