<?xml version="1.0" encoding="utf-8"?>
<!-- Generator: Adobe Illustrator 27.0.0, SVG Export Plug-In . SVG Version: 6.00 Build 0)  -->
<svg version="1.1" id="Capa_1" xmlns="http://www.w3.org/2000/svg" xmlns:xlink="http://www.w3.org/1999/xlink" x="0px" y="0px"
	 viewBox="0 0 425.2 425.2" style="enable-background:new 0 0 425.2 425.2;" xml:space="preserve">
<style type="text/css">
	.st0{fill:#FFFFFF;}
	.st1{fill:none;stroke:#FFFFFF;stroke-width:19;stroke-miterlimit:10;}
</style>
<g id="kXfKSV_00000121250250986262050960000012714103807597247654_">
	<g>
		<path class="st0" d="M211.5,136.2c2.3,2.1,3.4,2.9,4.3,3.9c7.9,7.9,15.8,15.8,23.7,23.6c10.9,10.7,21.9,21.3,32.7,32.1
			c8.9,8.8,17.5,18,26.3,26.9c4.5,4.5,10.7,4.7,14.7,0.6c3.9-4,3.6-9.8-0.9-14.4c-5.4-5.5-10.9-10.9-16.3-16.4
			c-25.3-25.3-50.5-50.6-75.8-75.8c-5.1-5.1-10.6-5.1-15.8,0.1c-13,13.1-26.1,26.2-39.1,39.3c-1.5,1.5-3.3,2.9-5.8,5.1
			c0-5.9,0.1-10.6,0-15.1c-0.1-5.9-3.9-9.6-9.5-9.6c-5.8,0-9.4,3.5-9.6,9.5c-0.1,9.2-0.5,18.5,0,27.7c0.3,5.5-1.7,9.2-5.5,12.8
			c-7.8,7.4-15.4,15.2-22.9,22.8c-3.3,3.3-4,7.2-2,11.4c2.1,4.3,5.9,6.1,10.3,5.1c2.5-0.6,4.9-2.3,6.9-4.2
			c6.9-6.7,13.6-13.6,20.4-20.4c11.6-11.6,23.2-23.1,34.7-34.8C192.3,156.6,201.7,146.5,211.5,136.2z M212.7,308.2
			c16,0,32.1-0.1,48.1,0c16.6,0.1,27.4-11.6,28.1-25.3s0.2-27.5,0.1-41.2c0-3.8-1.3-7.3-5.1-9.2c-7-3.6-14.4,1.2-14.5,9.5
			c-0.1,12.8,0,25.6,0,38.3c0,5.8-2.3,8.2-8.1,8.2c-32.3,0.1-64.7,0.1-97.1,0c-5.9,0-8.3-2.5-8.3-8.5c0-12.5,0-25,0-37.5
			c0-4-0.9-7.7-4.7-9.9c-7.1-4.1-14.8,0.5-14.9,9.3c-0.2,12.2,0.3,24.4-0.1,36.5c-0.5,17.2,11,30.2,29.9,29.7
			C181.6,307.9,197.2,308.2,212.7,308.2z"/>
		<path class="st0" d="M211.5,136.2c-9.8,10.3-19.2,20.3-28.9,30.2c-11.5,11.7-23.2,23.2-34.7,34.8c-6.8,6.8-13.5,13.8-20.4,20.4
			c-1.9,1.8-4.4,3.6-6.9,4.2c-4.5,1.1-8.2-0.7-10.3-5.1c-2.1-4.2-1.3-8.1,2-11.4c7.6-7.6,15.1-15.4,22.9-22.8
			c3.8-3.6,5.8-7.3,5.5-12.8c-0.5-9.2-0.2-18.5,0-27.7c0.1-6,3.7-9.5,9.6-9.5c5.7,0,9.4,3.7,9.5,9.6c0.1,4.6,0,9.2,0,15.1
			c2.5-2.2,4.3-3.6,5.8-5.1c13.1-13.1,26.1-26.2,39.1-39.3c5.1-5.2,10.6-5.3,15.8-0.1c25.3,25.3,50.5,50.6,75.8,75.8
			c5.4,5.5,10.9,10.9,16.3,16.4c4.5,4.5,4.8,10.4,0.9,14.4c-4,4.1-10.2,3.9-14.7-0.6c-8.8-8.9-17.4-18-26.3-26.9
			c-10.8-10.8-21.8-21.4-32.7-32.1c-7.9-7.8-15.8-15.8-23.7-23.6C214.9,139.1,213.9,138.3,211.5,136.2z"/>
		<path class="st0" d="M212.7,308.2c-15.6,0-31.1-0.3-46.7,0.1c-19,0.5-30.5-12.6-29.9-29.7c0.4-12.2-0.1-24.3,0.1-36.5
			c0.1-8.8,7.7-13.4,14.9-9.3c3.8,2.2,4.7,5.9,4.7,9.9c0,12.5,0,25,0,37.5c0,6.1,2.3,8.5,8.3,8.5c32.3,0.1,64.7,0.1,97.1,0
			c5.7,0,8.1-2.3,8.1-8.2c0.1-12.8-0.1-25.6,0-38.3c0.1-8.3,7.5-13.1,14.5-9.5c3.7,1.9,5,5.4,5.1,9.2c0.1,13.7,0.5,27.5-0.1,41.2
			c-0.7,13.7-11.4,25.5-28.1,25.3C244.8,308.1,228.8,308.2,212.7,308.2z"/>
	</g>
</g>
<circle class="st1" cx="212.6" cy="212.6" r="184.7"/>
</svg>
