<?xml version="1.0" encoding="utf-8"?>
<!-- Generator: Adobe Illustrator 24.0.2, SVG Export Plug-In . SVG Version: 6.00 Build 0)  -->
<svg version="1.1" id="Capa_1" xmlns="http://www.w3.org/2000/svg" xmlns:xlink="http://www.w3.org/1999/xlink" x="0px" y="0px"
	 viewBox="0 0 141.7 141.7" style="enable-background:new 0 0 141.7 141.7;" xml:space="preserve">
<style type="text/css">
	.st0{fill:#FFFFFF;}
	.st1{fill:none;stroke:#FFFFFF;stroke-width:6;stroke-miterlimit:10;}
</style>
<g>
	<path class="st0" d="M242.3,71.3c0-11,4.4-19.5,15.8-19.5c12.8,0,16.1,9.7,15.2,22.6c0,0-7.5,0.1-19.1,0.2c0.3,6.8,1.5,9.7,4.1,9.7
		c2.2,0,3.3-2.2,3.5-6.9c0,0,5.9,0.1,11.8,0.2c-1,8.8-6.6,14-15.4,14C245.7,91.7,242.3,83,242.3,71.3z M254.3,68.6
		c2.4,0,4.6-0.1,7.1-0.2c0.1-6.2-0.9-9.8-3.3-9.8S254.5,62,254.3,68.6z"/>
	<path class="st0" d="M275.6,101.4c0-3.5,3-6.7,7.6-8.1c-2.8-1.3-4.1-3.4-4.1-5.6c0-2.1,1.6-4.2,4.5-5.9c-5.1-2.3-7.6-7.2-7.6-14.7
		c0-8.6,4.9-15.9,15.3-15.9c0.8,0,2.2,0.2,2.2,0.2c0.4-2.2,1.4-6.3,2.5-12.3c0,0,3.3,0.9,10.6,2.4c0,0-2.6,4.5-6.6,12.2
		c4.2,2.8,6.2,7.8,6.2,13.5c0,11.2-6.2,16.3-14.3,16.3c-1,0-2,0-2.9-0.2c-0.6,0.5-0.9,1.1-0.9,1.5c0,1.1,1.3,1.7,4.8,2.1
		c11.2,1.5,15.5,4.8,15.5,10.9c0,8.4-8.4,12.3-17.4,12.3C281.6,110.1,275.6,107.1,275.6,101.4z M289.9,95.8
		c-2.4,1.2-3.5,2.8-3.5,4.4c0,2.2,2.1,3.5,5.1,3.5c3.3,0,6-1.5,6-4C297.5,97.4,294.8,96.3,289.9,95.8z M294.8,67.6
		c0-5.8-1.1-9.3-3.6-9.3c-2.4,0-3.8,3-3.8,9.3c0,6.7,1.3,9.4,3.8,9.4C293.5,76.9,294.8,74.3,294.8,67.6z"/>
	<path class="st0" d="M308.4,71.2c0-11.4,5.1-19.4,16-19.4c11.4,0,15.9,8.2,15.9,19.7c0,14.1-5.7,20.1-16.1,20.1
		C312.2,91.6,308.4,83.4,308.4,71.2z M328.1,71.6c0-8.9-1-12.7-3.7-12.7c-2.8,0-3.8,3.9-3.8,12.3c0,10.5,1,13.6,3.8,13.6
		C327,84.8,328.1,81.2,328.1,71.6z"/>
</g>
<g id="SBMu7W.tif">
	<g>
		<path class="st0" d="M78.1,70.7c2.9,2.9,5.4,5.4,8,7.9c2.8,2.7,5.5,5.5,8.3,8.3c2.2,2.3,2.2,5.6,0.1,7.6c-2.1,2-5.3,1.9-7.5-0.3
			c-4.9-4.8-9.7-9.7-14.6-14.5c-0.4-0.4-0.9-0.9-1.4-1.4c-0.5,0.5-1,0.9-1.4,1.3c-4.8,4.8-9.5,9.5-14.3,14.3
			c-2.5,2.5-5.7,2.6-7.9,0.5c-2.2-2.2-2-5.4,0.5-7.9c5.2-5.2,10.4-10.3,15.7-15.6c-0.5-0.5-0.9-1-1.3-1.4
			c-4.9-4.9-9.8-9.7-14.7-14.7c-3-3.1-1.9-7.7,2.2-8.9c2.2-0.6,4,0.2,5.5,1.7c4.8,4.9,9.7,9.7,14.6,14.5c0.4,0.4,0.7,0.7,1.2,1.1
			c0.5-0.5,1-0.9,1.4-1.3c4.9-4.8,9.7-9.7,14.6-14.5c1.9-1.8,4.1-2.2,6.2-1.2c1.9,0.9,3.3,3,2.8,5.1c-0.3,1.3-1,2.8-2,3.7
			c-4.6,4.8-9.4,9.5-14.1,14.2C79.4,69.8,78.8,70.1,78.1,70.7z"/>
	</g>
</g>
<circle class="st1" cx="70.9" cy="70.9" r="64.1"/>
</svg>
