<?xml version="1.0" encoding="utf-8"?>
<!-- Generator: Adobe Illustrator 27.0.0, SVG Export Plug-In . SVG Version: 6.00 Build 0)  -->
<svg version="1.1" id="Capa_1" xmlns="http://www.w3.org/2000/svg" xmlns:xlink="http://www.w3.org/1999/xlink" x="0px" y="0px"
	 viewBox="0 0 411 99.2" style="enable-background:new 0 0 411 99.2;" xml:space="preserve">
<style type="text/css">
	.st0{fill:#FFFFFF;}
</style>
<g>
	<path class="st0" d="M245.3,7c4.7-0.8,8.9-1.2,12.7-1.2c23.7,0,32.4,14.4,32.4,45.6c0,31.3-10.8,42.3-32,42.3
		c-4,0-8.4-0.4-13.1-1.1C245.5,48.9,245.3,7,245.3,7z M272.4,50.3c0-23-3.2-31.2-10.7-30.1c0.1,29.6,0.7,60,0.7,60
		C268.6,80.7,272.4,77.7,272.4,50.3z"/>
	<path class="st0" d="M294.8,59.4c0-9.5,0.5-19.1,1.6-28.7c0,0,4.3,0.6,15.3,1.1c-0.7,7.3-1,15.8-1,21.8c0,21.5,1.8,25.2,5,25.2
		c2.6,0,4.4-4.1,4.4-10c0.1-20.1-0.8-39.7-0.8-39.7s4.8,0.4,16.5,0.2c0,0-0.1,27.3,0.2,64.6c0,0-4.1-0.2-13.3-0.1
		c0,0,0.1-4.8,0.2-11c-2.4,6.5-7.7,10.1-13,10.1C299.9,93.1,294.8,85.1,294.8,59.4z"/>
	<path class="st0" d="M341.4,61c0-17.5,6.1-31.2,22.2-31.2c18,0,22.5,15.6,21.3,36.1c0,0-10.6,0.1-26.7,0.4
		c0.4,10.9,2,15.5,5.8,15.5c3.1,0,4.7-3.6,4.9-11c0,0,8.4,0.1,16.5,0.4c-1.3,14.2-9.4,22.4-21.6,22.4
		C346.2,93.5,341.4,79.6,341.4,61z M358.2,56.7c3.4,0,6.5-0.1,10-0.2c0.1-10-1.2-15.7-4.7-15.7C360,40.7,358.6,46.1,358.2,56.7z"/>
	<path class="st0" d="M390.6,90.4c0.5-54.4,0.1-81.5,0.1-81.5C401.5,9.3,407,9.3,407,9.3c-0.5,62.2-0.1,81.4-0.1,81.4
		C396.3,90.4,390.6,90.4,390.6,90.4z"/>
	<path class="st0" d="M6.4,8.8c0,0,10.8,0.1,23.9-0.5c0,0,2.8,23.3,6.5,48.3c2-13.1,4.9-32.4,7-51.8c0,0,13,0.4,24.6,0.7
		c0,0,0.2,34.4,3,88c0,0-8.9,0.5-17.3,0.7c0,0,0.5-29.6-0.8-71c-2,13.2-5.3,33.9-7.7,53.5c0,0-9-0.1-16.9-0.5c0,0-2.3-18.6-7.2-49.8
		c-0.1,14.7-0.2,40.7,0,64.4c0,0-10.3-0.2-17.5-0.4C3.8,90.6,5.4,55.5,6.4,8.8z"/>
	<path class="st0" d="M75.2,60.8c0-18.3,7.1-31.1,22.4-31.1c15.9,0,22.3,13.2,22.3,31.5c0,22.5-8,32.1-22.5,32.1
		C80.6,93.4,75.2,80.4,75.2,60.8z M102.9,61.4c0-14.3-1.4-20.4-5.2-20.4c-4,0-5.3,6.2-5.3,19.8c0,16.8,1.3,21.7,5.3,21.7
		C101.4,82.5,102.9,76.8,102.9,61.4z"/>
	<path class="st0" d="M155.3,91.2c0,0,0.1-3.1,0.2-8.5c-2.4,6.2-7.1,10-13.1,10c-11.3,0-18.6-8.9-18.6-30.8
		c0-18.2,5.8-30.3,17.5-30.3c5,0,8.9,3.2,11.2,7.7c-0.1-7.4-0.4-18.8-1-32.6c0,0,3.5,0.2,17.1-0.1c0,0-0.6,36.9-0.2,85
		C168.8,91.3,163.7,91.2,155.3,91.2z M152.2,62.8c0-13.6-1.9-19.3-5.5-19.3c-3.1,0-5,5.4-5,18.9c0,14.2,2,18.9,5.3,18.9
		S152.2,77.5,152.2,62.8z"/>
	<path class="st0" d="M174.2,61c0-17.5,6.1-31.2,22.2-31.2c18,0,22.5,15.6,21.3,36.1c0,0-10.6,0.1-26.7,0.4
		c0.4,10.9,2,15.5,5.8,15.5c3.1,0,4.7-3.6,4.9-11c0,0,8.4,0.1,16.5,0.4c-1.3,14.2-9.4,22.4-21.6,22.4C179,93.5,174.2,79.6,174.2,61z
		 M191,56.7c3.4,0,6.5-0.1,10-0.2c0.1-10-1.2-15.7-4.7-15.7C192.7,40.7,191.3,46.1,191,56.7z"/>
</g>
</svg>
