<?xml version="1.0" encoding="utf-8"?>
<!-- Generator: Adobe Illustrator 27.0.0, SVG Export Plug-In . SVG Version: 6.00 Build 0)  -->
<svg version="1.1" id="Capa_1" xmlns="http://www.w3.org/2000/svg" xmlns:xlink="http://www.w3.org/1999/xlink" x="0px" y="0px"
	 viewBox="0 0 453.5 99.2" style="enable-background:new 0 0 453.5 99.2;" xml:space="preserve">
<style type="text/css">
	.st0{fill:#FFFFFF;}
</style>
<g>
	<path class="st0" d="M3.6,8.5c0,0,8.1,0.1,17.9-0.5c0,0,2,23.3,4.9,48.5c1.6-13.1,3.7-32.6,5.3-52.1c0,0,9.7,0.4,18.4,0.7
		c0,0,0.2,34.6,2.2,88.5c0,0-6.6,0.5-13,0.7c0,0,0.4-29.8-0.6-71.4c-1.6,13.2-4,34.1-5.7,53.7c0,0-6.7-0.1-12.7-0.5
		c0,0-1.8-18.6-5.4-50c-0.1,14.8-0.2,40.9,0,64.7c0,0-7.7-0.2-13.2-0.4C1.6,90.6,2.9,55.3,3.6,8.5z"/>
	<path class="st0" d="M55.2,60.6c0-18.4,5.3-31.2,16.9-31.2c12,0,16.8,13.2,16.8,31.7c0,22.7-6,32.3-17,32.3
		C59.3,93.4,55.2,80.3,55.2,60.6z M76,61.2c0-14.3-1.1-20.5-3.9-20.5c-3,0-4,6.3-4,19.9c0,16.9,1,21.9,4,21.9
		C74.9,82.4,76,76.8,76,61.2z"/>
	<path class="st0" d="M115.4,91.2c0,0,0.1-3.1,0.2-8.5c-1.8,6.3-5.3,10-9.8,10c-8.5,0-13.9-8.9-13.9-31c0-18.3,4.3-30.5,13.2-30.5
		c3.8,0,6.6,3.2,8.4,7.7c-0.1-7.5-0.3-18.9-0.7-32.8c0,0,2.6,0.2,12.9-0.1c0,0-0.5,37.2-0.2,85.4C125.4,91.3,121.6,91.2,115.4,91.2z
		 M113.1,62.7c0-13.6-1.5-19.4-4.1-19.4c-2.3,0-3.8,5.4-3.8,19c0,14.2,1.6,19,4,19C111.5,81.3,113.1,77.5,113.1,62.7z"/>
	<path class="st0" d="M128.7,77.6c0-13.5,7-21,19.5-22.2c0,0-0.1-2.2-0.1-4c-0.2-7.3-0.9-9.8-3-9.8c-2.5,0-3.4,3.8-3.3,11
		c0,0-4.6,0.2-11.5,0.1c-0.5-13.2,4.3-23,15.3-23c10.1,0,14.4,8.5,14.7,22.3c0.4,22.3,0.1,41.4,0.1,41.4s-2.8,0.1-9.3,0.2
		c0,0,0.3-4.1,0.4-9.3c-1.8,6.5-6.2,8.9-10.8,8.9C133.7,93.4,128.7,87.6,128.7,77.6z M148.7,63.8c-5.9,1.2-7.9,6.3-7.9,11.5
		c0,3.7,1,6.4,3.6,6.4c2.4,0,4.4-2.8,4.4-13.1C148.8,67,148.8,65.3,148.7,63.8z"/>
	<path class="st0" d="M164.7,90.3c0.4-54.7,0.1-82,0.1-82c8.1,0.4,12.3,0.4,12.3,0.4c-0.4,62.6-0.1,81.9-0.1,81.9
		C169,90.3,164.7,90.3,164.7,90.3z"/>
	<path class="st0" d="M180.7,13.4c0-6.3,2.9-9.9,7.7-9.9s7.4,4.3,7.4,10c0,5.9-2.5,10.5-7.5,10.5C183.2,24,180.7,20.1,180.7,13.4z
		 M182.1,30.1c0,0,4.1,0.1,12.2-0.1c0,0-0.1,22.7,0.4,62c0,0-5.2,0-12.3,0.1C182.4,92.1,182.5,75.4,182.1,30.1z"/>
	<path class="st0" d="M197.4,31.8c1.6,0.1,3,0.1,4.5,0.1c0.1-9.6,0.2-15.8,0.2-15.8c8.5,0.2,11.9,0.1,11.9,0.1s-0.2,6.5-0.3,15.9
		c4.6,0.1,7.7,0,7.7,0c-0.3,11.7-0.2,14.4-0.2,14.4c-2.7-0.1-5.2-0.1-7.6-0.1c0,7.4,0,15.3,0.2,23.1c0.1,4.4,1.6,6.5,4.6,6.5
		c0.8,0,1.8-0.1,3-0.5l0.7,15.2c-2.9,1-5.4,1.5-7.7,1.5c-7.7,0-12.5-5.1-12.5-17.9c-0.1-10.1-0.2-19.5-0.1-27.9
		c-1.9-0.1-4.3,0-4.3,0C197.5,35.4,197.4,31.8,197.4,31.8z"/>
	<path class="st0" d="M223.8,77.9c0-12.7,5.6-21.7,19.5-22.5c0,0,0-1.5-0.1-2.7c-0.3-7.3-0.9-9.8-3-9.8c-2.5,0-3.4,3.5-3.3,10.2
		c0,0-4.7-0.9-11.5-1.2c0-14.1,4.9-20.9,15.3-20.9c10.1,0,14.4,8.5,14.7,22.3c0.4,22.3,0.1,42.2,0.1,42.2s-2.8,0.1-9.3,0.2
		c0,0,0.3-4.6,0.4-10.1c-1.8,6.4-6.2,8.9-10.8,8.9C230,94.7,223.8,90.1,223.8,77.9z M229.4,11.2c0,0,2.2-2,7.6-7.5
		c0,0,3,6.7,8.9,18.5c0,0-1.9,1.5-5.9,5.7C239.9,27.9,237.1,23.1,229.4,11.2z M243.7,63.7c-5.6,0.7-7.9,5.1-7.9,12.1
		c0,4.6,1.4,7.2,3.6,7.2c2.9,0,4.4-3.6,4.4-13.1C243.8,68,243.7,63.7,243.7,63.7z"/>
	<path class="st0" d="M298.2,94.3c0,0,0.1-4.3,0.2-10.7c-1.8,6.3-5.4,9.3-9.7,9.3c-8.4,0-13.8-9.6-13.8-32.1
		c0-17.9,3.8-31.4,13.1-31.4c3.8,0,6.6,3.1,8.4,7.4c-0.1-6.7-0.3-16.1-0.7-29c0,0,2.6,0.2,12.8-0.1c0,0-0.4,38.6-0.1,86.8
		C308.4,94.4,304.6,94.3,298.2,94.3z M296,61.7c0-14.1-1.4-20.6-4.1-20.6c-2.5,0-3.7,7-3.7,20.2c0,14.4,1.4,20.5,4,20.5
		C294.3,81.8,296,77.8,296,61.7z"/>
	<path class="st0" d="M312.8,59.4c0-9.5,0.4-19.1,1.2-28.8c0,0,3.2,0.6,11.5,1.1c-0.6,7.4-0.7,15.9-0.7,22c0,21.6,1.4,25.3,3.8,25.3
		c1.9,0,3.3-4.1,3.3-10c0.1-20.3-0.6-39.9-0.6-39.9s3.6,0.4,12.5,0.2c0,0-0.1,27.5,0.2,64.9c0,0-3-0.2-10-0.1c0,0,0.1-4.8,0.2-11.1
		c-1.8,6.5-5.7,10.1-9.7,10.1C316.7,93.2,312.8,85,312.8,59.4z"/>
	<path class="st0" d="M347.8,60.8c0-17.7,4.6-31.4,16.7-31.4c13.5,0,17,15.7,16,36.3c0,0-7.9,0.1-20.1,0.4c0.3,11,1.6,15.6,4.3,15.6
		c2.3,0,3.5-3.6,3.7-11.1c0,0,6.3,0.1,12.5,0.4c-1,14.2-7,22.6-16.2,22.6C351.4,93.6,347.8,79.6,347.8,60.8z M360.4,56.5
		c2.5,0,4.9-0.1,7.5-0.2c0.1-10-0.9-15.8-3.5-15.8S360.7,45.9,360.4,56.5z"/>
	<path class="st0" d="M384.7,90.3c0.4-54.7,0.1-82,0.1-82c8.1,0.4,12.3,0.4,12.3,0.4c-0.4,62.6-0.1,81.9-0.1,81.9
		C389,90.3,384.7,90.3,384.7,90.3z"/>
	<path class="st0" d="M402,92.1c0.4-54.6,0.1-85.5,0.1-85.5C410.2,7,414.4,7,414.4,7c-0.4,62.6-0.1,85.4-0.1,85.4
		C406.2,92.1,402,92.1,402,92.1z"/>
	<path class="st0" d="M418.2,60.6c0-18.4,5.3-31.2,16.9-31.2c12,0,16.8,13.2,16.8,31.7c0,22.7-6,32.3-17,32.3
		C422.3,93.4,418.2,80.3,418.2,60.6z M439,61.2c0-14.3-1.1-20.5-3.9-20.5c-3,0-4,6.3-4,19.9c0,16.9,1,21.9,4,21.9
		C437.9,82.4,439,76.8,439,61.2z"/>
</g>
</svg>
