<?xml version="1.0" encoding="utf-8"?>
<!-- Generator: Adobe Illustrator 24.0.2, SVG Export Plug-In . SVG Version: 6.00 Build 0)  -->
<svg version="1.1" id="Capa_1" xmlns="http://www.w3.org/2000/svg" xmlns:xlink="http://www.w3.org/1999/xlink" x="0px" y="0px"
	 viewBox="0 0 410 80" style="enable-background:new 0 0 410 80;" xml:space="preserve">
<style type="text/css">
	.st0{fill:#FFFFFF;}
</style>
<g>
	<path class="st0" d="M12.3,5c0,0,9.3,0.1,20.5-0.4c0,0,2.3,19.9,5.6,41.5c1.8-11.2,4.2-27.9,6-44.5c0,0,11.1,0.3,21.1,0.6
		c0,0,0.2,29.5,2.5,75.7c0,0-7.6,0.4-14.9,0.6c0,0,0.4-25.4-0.7-61c-1.8,11.3-4.5,29.1-6.5,45.9c0,0-7.7-0.1-14.6-0.4
		c0,0-2-15.9-6.2-42.7c-0.1,12.7-0.2,34.9,0,55.3c0,0-8.9-0.2-15.1-0.3C10,75.2,11.5,45,12.3,5z"/>
	<path class="st0" d="M71.4,49.5c0-15.7,6.1-26.7,19.3-26.7c13.7,0,19.2,11.3,19.2,27.1c0,19.4-6.9,27.6-19.4,27.6
		C76.1,77.6,71.4,66.4,71.4,49.5z M95.2,50.1c0-12.2-1.3-17.5-4.4-17.5c-3.4,0-4.5,5.4-4.5,17c0,14.5,1.2,18.7,4.5,18.7
		C93.9,68.2,95.2,63.4,95.2,50.1z"/>
	<path class="st0" d="M140.2,75.7c0,0,0.1-2.6,0.2-7.3c-2.1,5.4-6.1,8.5-11.2,8.5c-9.7,0-15.9-7.6-15.9-26.5
		c0-15.6,5-26.1,15.1-26.1c4.3,0,7.6,2.7,9.6,6.5c-0.1-6.4-0.3-16.1-0.8-28.1c0,0,3,0.2,14.8-0.1c0,0-0.5,31.8-0.2,73
		C151.7,75.8,147.4,75.7,140.2,75.7z M137.6,51.3c0-11.6-1.7-16.6-4.7-16.6c-2.6,0-4.3,4.6-4.3,16.2c0,12.1,1.8,16.2,4.5,16.2
		S137.6,64,137.6,51.3z"/>
	<path class="st0" d="M195.2,51.6c0,15.9-7,26.3-19.4,26.3s-19.4-10.2-19.4-26.7C156.4,34,164,24,176,24
		C188.1,24,195.2,33.6,195.2,51.6z M171.1,51.2c0,12.6,1.8,17,4.7,17c2.6,0,4.5-4.1,4.5-16.5c0-13.3-1.4-18.1-4.6-18.1
		C172.6,33.6,171.1,39.2,171.1,51.2z"/>
	<path class="st0" d="M218,3.4c4-0.7,7.6-1.1,10.9-1.1c20.4,0,27.9,12.3,27.9,39.1c0,26.9-9.3,36.4-27.5,36.4
		c-3.4,0-7.2-0.3-11.2-0.9C218.2,39.4,218,3.4,218,3.4z M241.3,40.6c0-19.7-2.7-26.8-9.2-25.9c0.1,25.4,0.6,51.5,0.6,51.5
		C238.1,66.6,241.3,64.1,241.3,40.6z"/>
	<path class="st0" d="M260.6,48.5c0-8.1,0.4-16.4,1.4-24.6c0,0,3.7,0.5,13.2,0.9c-0.6,6.3-0.8,13.6-0.8,18.8
		c0,18.5,1.6,21.6,4.3,21.6c2.2,0,3.8-3.5,3.8-8.5c0.1-17.3-0.7-34.1-0.7-34.1s4.1,0.3,14.2,0.2c0,0-0.1,23.5,0.2,55.5
		c0,0-3.5-0.2-11.4-0.1c0,0,0.1-4.1,0.2-9.5c-2.1,5.6-6.5,8.7-11.1,8.7C265,77.4,260.6,70.4,260.6,48.5z"/>
	<path class="st0" d="M300.6,49.8c0-15.1,5.3-26.8,19.1-26.8c15.4,0,19.4,13.4,18.4,31c0,0-9.1,0.1-23,0.3c0.3,9.4,1.8,13.3,5,13.3
		c2.6,0,4-3.1,4.2-9.5c0,0,7.2,0.1,14.2,0.3c-1.2,12.1-8,19.3-18.6,19.3C304.7,77.7,300.6,65.8,300.6,49.8z M315.1,46.1
		c2.8,0,5.6-0.1,8.5-0.2c0.1-8.5-1.1-13.5-4-13.5C316.6,32.4,315.4,37,315.1,46.1z"/>
	<path class="st0" d="M342.9,75c0.4-46.7,0.1-70.1,0.1-70.1c9.3,0.3,14,0.3,14,0.3c-0.4,53.5-0.1,70-0.1,70
		C347.8,75,342.9,75,342.9,75z"/>
	<path class="st0" d="M361.5,49.5c0-15.7,6.1-26.7,19.3-26.7c13.7,0,19.2,11.3,19.2,27.1c0,19.4-6.9,27.6-19.4,27.6
		C366.1,77.6,361.5,66.4,361.5,49.5z M385.2,50.1c0-12.2-1.3-17.5-4.4-17.5c-3.4,0-4.5,5.4-4.5,17c0,14.5,1.2,18.7,4.5,18.7
		C384,68.2,385.2,63.4,385.2,50.1z"/>
</g>
</svg>
