<?xml version="1.0" encoding="utf-8"?>
<!-- Generator: Adobe Illustrator 27.0.0, SVG Export Plug-In . SVG Version: 6.00 Build 0)  -->
<svg version="1.1" id="Capa_1" xmlns="http://www.w3.org/2000/svg" xmlns:xlink="http://www.w3.org/1999/xlink" x="0px" y="0px"
	 viewBox="0 0 500 500" style="enable-background:new 0 0 500 500;" xml:space="preserve">
<style type="text/css">
	.st0{fill:#FFFFFD;}
</style>
<g id="_x36_GEk3U_00000055687947039724197080000017381526848070658235_">
	<g>
		<path class="st0" d="M361,363.4c0-7.8,0.1-15.6,0-23.5c-0.5-43.2-34.1-77.9-76.9-78.7c-23.1-0.5-46.3-0.5-69.4,0
			c-38.5,0.8-72,31.5-75.1,70c-1.5,18.7-0.5,37.6-1,56.6c-0.1,5.3,1.5,7.6,6.5,9.4c41.4,15.1,84.1,19.7,127.9,16.9
			c28.7-1.8,56.5-7.5,83.4-17.7c3.4-1.2,4.6-2.9,4.5-6.6C360.9,380.9,361,372.1,361,363.4z M190.4,245.2c-3.6-5.6-8.3-10.2-10-15.9
			c-3.5-11.1-11.7-13.7-21.5-14.7c-3.1-0.3-6.1-0.6-9.2-0.6c-22.1,0-44.2-0.2-66.3,0C39.9,214.4,5.5,249,5.1,292.3
			C5,309.1,5.2,326,5,342.7c0,3.7,1.2,5.2,4.6,6.6c28.6,10.8,58.2,16.3,88.5,17.9c6.9,0.3,13.8,0,21.2,0c0-9.6-0.1-18.9,0-28.2
			c0.2-22.8,7.5-43,21.7-60.8C153.9,262.2,170.4,251.4,190.4,245.2z M380.6,367.2c1.2,0.2,1.9,0.5,2.6,0.5
			c37.1,0.1,73.1-5.3,107.8-18.6c2.7-1,4-2.4,3.9-5.4c-0.1-17,0-34-0.1-51c-0.2-43.3-34.6-78.1-78-78.6c-22.1-0.2-44.2-0.3-66.3,0.1
			c-7.6,0.1-15.1,2-22.6,3.5c-1.5,0.2-3.2,1.5-3.9,2.8c-4.8,8.2-9.2,16.4-13.8,24.8c0.5,0.2,1.6,0.6,2.6,1
			c41.6,14.5,67.6,51,67.7,95.1C380.6,349.9,380.6,358.4,380.6,367.2z M116,204.5c32.5,0.2,59.4-26.1,59.7-58.5
			c0.3-33.4-26-60.7-59-60.9c-33.2-0.2-60.2,26.4-60.4,59.6C56.1,177.5,82.8,204.3,116,204.5z M384.1,204.5
			c32.3,0.1,59.3-26.4,59.5-58.8c0.3-33.3-26.2-60.2-59.4-60.5c-32.9-0.3-59.9,26.4-60,59.4C324.3,178,350.6,204.3,384.1,204.5z
			 M250.3,132.3c-32.8-0.2-59.6,26.2-60,58.8c-0.3,33.2,26,60.1,59.4,60.5c32.5,0.5,59.7-26.5,59.9-59.5
			C309.9,159.2,283.3,132.4,250.3,132.3z"/>
		<path class="st0" d="M361,363.4c0,8.8-0.2,17.7,0.1,26.5c0.1,3.6-1.1,5.3-4.5,6.6c-26.9,10.2-54.8,15.8-83.4,17.7
			c-43.8,2.8-86.5-1.8-127.9-16.9c-5-1.8-6.6-4.2-6.5-9.4c0.6-18.8-0.6-37.8,1-56.6c3.1-38.4,36.5-69.2,75.1-70
			c23.1-0.5,46.3-0.5,69.4,0c42.6,0.8,76.3,35.4,76.9,78.7C361.1,347.7,361,355.5,361,363.4z"/>
		<path class="st0" d="M190.4,245.2c-20,6.1-36.5,17-49.3,33.1c-14.2,17.8-21.4,38-21.7,60.8c-0.1,9.3,0,18.6,0,28.2
			c-7.4,0-14.3,0.3-21.2,0c-30.4-1.6-60-7.1-88.5-17.9c-3.3-1.2-4.6-2.8-4.6-6.6c0.2-16.8,0-33.7,0.1-50.5
			c0.3-43.4,34.8-77.9,78.2-78.2c22.1-0.2,44.2,0,66.3,0c3.1,0,6.1,0.2,9.2,0.6c9.9,0.9,18,3.6,21.5,14.7
			C182.2,235,186.7,239.7,190.4,245.2z"/>
		<path class="st0" d="M380.6,367.2c0-8.8,0-17.3,0-25.8c0-44.1-26-80.6-67.7-95.1c-1.1-0.3-2.2-0.8-2.6-1
			c4.6-8.4,9.1-16.7,13.8-24.8c0.7-1.2,2.4-2.5,3.9-2.8c7.5-1.4,15-3.3,22.6-3.5c22.1-0.5,44.2-0.3,66.3-0.1
			c43.3,0.5,77.8,35.1,78,78.6c0.1,17-0.1,34,0.1,51c0,3.1-1.1,4.4-3.9,5.4c-34.7,13.3-70.9,18.7-107.8,18.6
			C382.5,367.8,382,367.6,380.6,367.2z"/>
		<path class="st0" d="M116,204.5c-33.2-0.2-59.7-27-59.6-59.7c0.2-33.2,27.2-59.9,60.4-59.6c33,0.2,59.3,27.4,59,60.9
			C175.4,178.3,148.4,204.8,116,204.5z"/>
		<path class="st0" d="M384.1,204.5c-33.7-0.1-59.9-26.5-59.7-60c0.1-33,27.1-59.7,60-59.4c33.2,0.3,59.7,27.3,59.4,60.5
			C443.4,178,416.4,204.6,384.1,204.5z"/>
		<path class="st0" d="M250.3,132.3c33.1,0.2,59.6,26.9,59.4,60c-0.2,33-27.3,60-59.9,59.5c-33.4-0.5-59.7-27.3-59.4-60.5
			C190.6,158.5,217.6,132.1,250.3,132.3z"/>
	</g>
</g>
</svg>
