<?xml version="1.0" encoding="utf-8"?>
<!-- Generator: Adobe Illustrator 27.0.0, SVG Export Plug-In . SVG Version: 6.00 Build 0)  -->
<svg version="1.1" id="Capa_1" xmlns="http://www.w3.org/2000/svg" xmlns:xlink="http://www.w3.org/1999/xlink" x="0px" y="0px"
	 viewBox="0 0 411 99.2" style="enable-background:new 0 0 411 99.2;" xml:space="preserve">
<style type="text/css">
	.st0{fill:#FFFFFF;}
</style>
<g>
	<path class="st0" d="M4.1,7c4.7-0.8,8.9-1.2,12.7-1.2c23.7,0,32.4,14.4,32.4,45.6c0,31.3-10.8,42.3-32,42.3c-4,0-8.4-0.4-13.1-1.1
		C4.3,48.9,4.1,7,4.1,7z M31.2,50.3c0-23-3.2-31.2-10.7-30.1c0.1,29.6,0.7,60,0.7,60C27.4,80.7,31.2,77.7,31.2,50.3z"/>
	<path class="st0" d="M53.6,59.4c0-9.5,0.5-19.1,1.6-28.7c0,0,4.3,0.6,15.3,1.1c-0.7,7.3-1,15.8-1,21.8c0,21.5,1.8,25.2,5,25.2
		c2.6,0,4.4-4.1,4.4-10c0.1-20.1-0.8-39.7-0.8-39.7s4.8,0.4,16.5,0.2c0,0-0.1,27.3,0.2,64.6c0,0-4.1-0.2-13.3-0.1
		c0,0,0.1-4.8,0.2-11c-2.4,6.5-7.7,10.1-13,10.1C58.7,93.1,53.6,85.1,53.6,59.4z"/>
	<path class="st0" d="M100.2,61c0-17.5,6.1-31.2,22.2-31.2c18,0,22.5,15.6,21.3,36.1c0,0-10.6,0.1-26.7,0.4
		c0.4,10.9,2,15.5,5.8,15.5c3.1,0,4.7-3.6,4.9-11c0,0,8.4,0.1,16.5,0.4c-1.3,14.2-9.4,22.4-21.6,22.4C105,93.5,100.2,79.6,100.2,61z
		 M117,56.7c3.4,0,6.5-0.1,10-0.2c0.1-10-1.2-15.7-4.7-15.7C118.8,40.7,117.4,46.1,117,56.7z"/>
	<path class="st0" d="M149.4,90.4c0.5-54.4,0.1-81.5,0.1-81.5c10.8,0.4,16.3,0.4,16.3,0.4c-0.5,62.2-0.1,81.4-0.1,81.4
		C155.1,90.4,149.4,90.4,149.4,90.4z"/>
	<path class="st0" d="M195.2,8.8c0,0,10.8,0.1,23.9-0.5c0,0,2.8,23.3,6.5,48.3c2-13.1,4.9-32.4,7-51.8c0,0,13,0.4,24.6,0.7
		c0,0,0.2,34.4,3,88c0,0-8.9,0.5-17.3,0.7c0,0,0.5-29.6-0.8-71c-2,13.2-5.3,33.9-7.7,53.5c0,0-9-0.1-16.9-0.5c0,0-2.3-18.6-7.2-49.8
		c-0.1,14.7-0.2,40.7,0,64.4c0,0-10.3-0.2-17.5-0.4C192.6,90.6,194.2,55.5,195.2,8.8z"/>
	<path class="st0" d="M264,60.8c0-18.3,7.1-31.1,22.4-31.1c15.9,0,22.3,13.2,22.3,31.5c0,22.5-8,32.1-22.5,32.1
		C269.4,93.4,264,80.4,264,60.8z M291.7,61.4c0-14.3-1.4-20.4-5.2-20.4c-4,0-5.3,6.2-5.3,19.8c0,16.8,1.3,21.7,5.3,21.7
		C290.2,82.5,291.7,76.8,291.7,61.4z"/>
	<path class="st0" d="M344.1,91.2c0,0,0.1-3.1,0.2-8.5c-2.4,6.2-7.1,10-13.1,10c-11.3,0-18.6-8.9-18.6-30.8
		c0-18.2,5.8-30.3,17.5-30.3c5,0,8.9,3.2,11.2,7.7c-0.1-7.4-0.4-18.8-1-32.6c0,0,3.5,0.2,17.1-0.1c0,0-0.6,36.9-0.2,85
		C357.6,91.3,352.5,91.2,344.1,91.2z M341,62.8c0-13.6-1.9-19.3-5.5-19.3c-3.1,0-5,5.4-5,18.9c0,14.2,2,18.9,5.3,18.9
		S341,77.5,341,62.8z"/>
	<path class="st0" d="M363,61c0-17.5,6.1-31.2,22.2-31.2c18,0,22.5,15.6,21.3,36.1c0,0-10.6,0.1-26.7,0.4c0.4,10.9,2,15.5,5.8,15.5
		c3.1,0,4.7-3.6,4.9-11c0,0,8.4,0.1,16.5,0.4c-1.3,14.2-9.4,22.4-21.6,22.4C367.8,93.5,363,79.6,363,61z M379.8,56.7
		c3.4,0,6.5-0.1,10-0.2c0.1-10-1.2-15.7-4.7-15.7C381.5,40.7,380.1,46.1,379.8,56.7z"/>
</g>
</svg>
