<?xml version="1.0" encoding="utf-8"?>
<!-- Generator: Adobe Illustrator 27.0.0, SVG Export Plug-In . SVG Version: 6.00 Build 0)  -->
<svg version="1.1" id="Capa_1" xmlns:ns0="http://www.w3.org/2000/svg"
	 xmlns="http://www.w3.org/2000/svg" xmlns:xlink="http://www.w3.org/1999/xlink" x="0px" y="0px" viewBox="0 0 34 24"
	 style="enable-background:new 0 0 34 24;" xml:space="preserve">
<style type="text/css">
	.st0{fill:#FFFFFF;}
</style>
<g>
	<path class="st0" d="M5.1,23.3C4.1,23.3,2,23.6,2,22c0,0,0-4.3,0-4.3c0-0.7,0.6-1.3,1.3-1.3c1.1,0,3.1-0.3,3.1,1.3c0,0,0,4.3,0,4.3
		C6.4,22.7,5.8,23.3,5.1,23.3z"/>
	<path class="st0" d="M11.5,23.3c-1.1,0-3.1,0.3-3.1-1.3c0,0,0-6.9,0-6.9c0-1.6,2.1-1.3,3.1-1.3c0.7,0,1.3,0.6,1.3,1.3V22
		C12.8,22.7,12.2,23.3,11.5,23.3z"/>
	<path class="st0" d="M17.9,23.3c-1.1,0-3.1,0.3-3.1-1.3c0,0,0-10.1,0-10.1c0-0.7,0.6-1.3,1.3-1.3c1.1,0,3.1-0.3,3.1,1.3
		c0,0,0,10.1,0,10.1C19.2,22.7,18.6,23.3,17.9,23.3z"/>
	<path class="st0" d="M24.3,23.3c-1.1,0-3.1,0.3-3.1-1.3c0,0,0-14.4,0-14.4c0-1.6,2.1-1.3,3.1-1.3c0.7,0,1.3,0.6,1.3,1.3V22
		C25.6,22.7,25,23.3,24.3,23.3z"/>
	<path class="st0" d="M30.7,23.3c-1.1,0-3.1,0.3-3.1-1.3c0,0,0-20,0-20c0-0.7,0.6-1.3,1.3-1.3C30,0.7,32.1,0.4,32,2c0,0,0,20,0,20
		C32,22.7,31.4,23.3,30.7,23.3z"/>
</g>
</svg>
