<?xml version="1.0" encoding="utf-8"?>
<!-- Generator: Adobe Illustrator 27.0.0, SVG Export Plug-In . SVG Version: 6.00 Build 0)  -->
<svg version="1.1" id="Capa_1" xmlns="http://www.w3.org/2000/svg" xmlns:xlink="http://www.w3.org/1999/xlink" x="0px" y="0px"
	 viewBox="0 0 226.8 65.2" style="enable-background:new 0 0 226.8 65.2;" xml:space="preserve">
<style type="text/css">
	.st0{fill:#FFFFFF;}
</style>
<g>
	<path class="st0" d="M11.8,33.2c-0.5,0.1-1,0.2-1.4,0.3c0,2.8,0.1,8.1,0.2,15.5c0,0-3.1,0-7.2,0.1c0,0,0.2-17.1,0.1-44.9
		c2.6-0.6,4.9-0.9,6.9-0.9c8.1,0,11.9,5.5,11.9,15.3c0,5.9-1.7,9.6-4.4,11.9c0.4,1.8,2.1,8.4,5.2,19.9c0,0-2.7,0.3-7.3,0.7
		C15.7,51.1,14.3,44.3,11.8,33.2z M14.8,19.2c0-5.1-1.2-8.3-3.9-8.3c-0.2,0-0.7,0.1-0.7,0.1c0.1,8.9,0.2,16.3,0.2,16.3
		C12.9,27.1,14.8,25,14.8,19.2z"/>
	<path class="st0" d="M22.7,33.1c0-9.4,2.6-16.7,9.4-16.7c7.6,0,9.5,8.4,9,19.3c0,0-4.5,0.1-11.3,0.2c0.2,5.9,0.9,8.3,2.4,8.3
		c1.3,0,2-1.9,2.1-5.9c0,0,3.5,0.1,7,0.2c-0.6,7.6-3.9,12-9.1,12C24.7,50.6,22.7,43.1,22.7,33.1z M29.7,30.8c1.4,0,2.7-0.1,4.2-0.1
		c0.1-5.3-0.5-8.4-2-8.4S29.9,25.2,29.7,30.8z"/>
	<path class="st0" d="M42.4,42.1c0-7.2,3.9-11.2,10.9-11.8c0,0-0.1-1.2-0.1-2.1c-0.1-3.9-0.5-5.2-1.7-5.2c-1.4,0-1.9,2-1.9,5.9
		c0,0-2.6,0.1-6.5,0.1c-0.3-7,2.4-12.2,8.6-12.2c5.6,0,8.1,4.5,8.2,11.9c0.2,11.9,0.1,22,0.1,22s-1.6,0.1-5.2,0.1
		c0,0,0.2-2.2,0.2-4.9c-1,3.5-3.5,4.7-6.1,4.7C45.2,50.5,42.4,47.4,42.4,42.1z M53.6,34.7c-3.3,0.7-4.5,3.4-4.5,6.1
		c0,2,0.6,3.4,2,3.4c1.3,0,2.5-1.5,2.5-7C53.7,36.4,53.7,35.5,53.6,34.7z"/>
	<path class="st0" d="M75.1,51c0,0,0.1-2.3,0.1-5.7c-1,3.4-3.1,4.9-5.4,4.9c-4.7,0-7.8-5.1-7.8-17.1c0-9.5,2.1-16.7,7.3-16.7
		c2.1,0,3.7,1.6,4.7,3.9c-0.1-3.6-0.2-8.6-0.4-15.5c0,0,1.4,0.1,7.2-0.1c0,0-0.2,20.6-0.1,46.3C80.8,51,78.7,51,75.1,51z M73.9,33.6
		c0-7.5-0.8-11-2.3-11c-1.4,0-2.1,3.8-2.1,10.8c0,7.7,0.8,10.9,2.2,10.9C72.9,44.3,73.9,42.2,73.9,33.6z"/>
	<path class="st0" d="M87.4,63.1c1.1-7.2,1.4-10.7,1.4-10.7c-4.1-22.8-6.5-34.2-6.5-34.2c4.7,0,7.5-0.4,7.5-0.4
		c1.2,14,2.4,22.8,2.4,22.8c1.7-16.8,2.1-24.5,2.1-24.5c3.4,0.3,7.7,0.5,7.7,0.5c-6.6,38.8-8,47.7-8,47.7
		C88.7,63.3,87.4,63.1,87.4,63.1z"/>
	<path class="st0" d="M111.5,17.7c0.9,0.1,1.7,0.1,2.5,0.1c0.1-5.1,0.1-8.4,0.1-8.4c4.8,0.1,6.7,0.1,6.7,0.1s-0.1,3.5-0.2,8.5
		c2.6,0.1,4.3,0,4.3,0c-0.1,6.2-0.1,7.6-0.1,7.6c-1.5-0.1-2.9-0.1-4.2-0.1c0,3.9,0,8.2,0.1,12.3c0.1,2.4,0.9,3.5,2.6,3.5
		c0.5,0,1-0.1,1.7-0.3l0.4,8.1c-1.6,0.5-3.1,0.8-4.3,0.8c-4.3,0-7-2.7-7-9.5c-0.1-5.4-0.1-10.4-0.1-14.9c-1.1-0.1-2.4,0-2.4,0
		C111.6,19.6,111.5,17.7,111.5,17.7z"/>
	<path class="st0" d="M126.2,33c0-9.8,3-16.7,9.5-16.7c6.7,0,9.4,7,9.4,16.9c0,12.1-3.4,17.2-9.5,17.2
		C128.5,50.5,126.2,43.5,126.2,33z M137.9,33.3c0-7.6-0.6-10.9-2.2-10.9c-1.7,0-2.2,3.4-2.2,10.6c0,9,0.6,11.6,2.2,11.6
		C137.3,44.7,137.9,41.6,137.9,33.3z"/>
	<path class="st0" d="M156.4,4.4c1.5-0.2,3-0.3,4.2-0.3c10,0,14,6,14,17.5c0,10.7-4.2,16.8-11.3,17.2l0.2,10.7c0,0-3-0.1-7.2,0.1
		C156.4,49.5,156.6,32.2,156.4,4.4z M163.3,31.6c2.6-0.3,4.2-2.5,4.2-9.7c0-6.6-1.4-10-4.2-9.8C163.2,18.1,163.2,21.8,163.3,31.6z"
		/>
	<path class="st0" d="M176.4,48.9c0.2-29.2,0.1-43.7,0.1-43.7c4.6,0.2,6.9,0.2,6.9,0.2c-0.2,33.4-0.1,43.6-0.1,43.6
		C178.8,48.9,176.4,48.9,176.4,48.9z"/>
	<path class="st0" d="M185.1,42.1c0-7.2,3.9-11.2,10.9-11.8c0,0-0.1-1.2-0.1-2.1c-0.1-3.9-0.5-5.2-1.7-5.2c-1.4,0-1.9,2-1.9,5.9
		c0,0-2.6,0.1-6.5,0.1c-0.3-7,2.4-12.2,8.6-12.2c5.6,0,8.1,4.5,8.2,11.9c0.2,11.9,0.1,22,0.1,22s-1.6,0.1-5.2,0.1
		c0,0,0.2-2.2,0.2-4.9c-1,3.5-3.5,4.7-6.1,4.7C187.9,50.5,185.1,47.4,185.1,42.1z M196.3,34.7c-3.3,0.7-4.5,3.4-4.5,6.1
		c0,2,0.6,3.4,2,3.4c1.3,0,2.5-1.5,2.5-7C196.4,36.4,196.4,35.5,196.3,34.7z"/>
	<path class="st0" d="M208.8,63.1c1.1-7.2,1.4-10.7,1.4-10.7c-4.1-22.8-6.5-34.2-6.5-34.2c4.7,0,7.5-0.4,7.5-0.4
		c1.2,14,2.4,22.8,2.4,22.8c1.7-16.8,2.1-24.5,2.1-24.5c3.4,0.3,7.7,0.5,7.7,0.5c-6.6,38.8-8,47.7-8,47.7
		C210.1,63.3,208.8,63.1,208.8,63.1z"/>
</g>
</svg>
