<?xml version="1.0" encoding="utf-8"?>
<!-- Generator: Adobe Illustrator 24.0.2, SVG Export Plug-In . SVG Version: 6.00 Build 0)  -->
<svg version="1.1" id="Capa_1" xmlns="http://www.w3.org/2000/svg" xmlns:xlink="http://www.w3.org/1999/xlink" x="0px" y="0px"
	 viewBox="0 0 500 500" style="enable-background:new 0 0 500 500;" xml:space="preserve">
<style type="text/css">
	.st0{fill:#FFFFFF;}
</style>
<g id="v75JeA_1_">
	<g>
		<path class="st0" d="M184.6,416c19.5,14.8,40.4,25.2,62.8,32.4c47.6,15.3,95.5,18.8,143.7,3.2c51.4-16.5,78-55.4,74.7-108.2
			c-1.1-17.1-7.7-31.8-19.6-44.4c-14.5-15.4-33.1-23-52.4-29.5c-18-6.1-36.2-11.5-54.2-17.7c-4.6-1.6-9.2-4.3-12.7-7.8
			c-7.8-7.7-4.6-19.7,6-22.7c4.5-1.3,9.5-1.5,14.2-1.2c24.5,1.6,46.7,10.8,68.6,20.8c9.6,4.4,18.8,9.6,28.5,14.7
			c14.9-25.7,29.7-51.1,44.7-76.9c-2.4-1.5-4.3-2.7-6.3-3.9c-28.1-16.7-58.6-26.5-90.9-30.6c-34.6-4.4-69-3.2-102.1,9.5
			c-32.9,12.6-58.4,33.4-68.1,68.5c-13.1,47.6,2.7,84,50.2,102.2c14.2,5.5,29,9.3,43.5,14c12.1,4,24.2,7.8,36.1,12.5
			c7,2.7,10.6,8.6,9.9,16.5c-0.7,7.7-5.4,12.1-12.3,14.2c-4,1.2-8.2,1.9-12.3,2c-17.2,0.4-33.5-4.4-49.4-10.5
			c-21.8-8.3-42.1-19.3-60.2-35C212.9,364.3,198.9,389.9,184.6,416z M12.9,83.7c2.8,13.1,5.4,25.5,8.1,38
			C39.7,208.9,58.4,296.2,77,383.5c0.9,4.3,2.3,5.8,6.8,5.8c31.4-0.2,62.8-0.1,94.2,0c3.5,0,5.6-0.9,7.4-4.3
			c12-23.2,24.1-46.4,36.3-69.5c1.5-2.9,0.8-4.5-0.9-7c-5-7.4-10.9-14.7-13.6-23c-13.3-41.1-5.4-78.7,22.9-111.2
			c22.2-25.5,51.8-38.2,84.5-44.3c4.1-0.8,7-2.3,9.2-6.2c16.1-28.8,32.6-57.5,48.9-86.2c0.9-1.5,1.5-3.2,2.6-5.4
			c-32.2,0-63.6,0.2-95-0.2c-6.2-0.1-9.9,1.6-11.6,7.4c-0.3,1-0.9,1.9-1.3,2.8c-37.7,78.4-75.4,156.7-113.2,235.1
			c-0.7,1.5-1.6,2.8-3.1,5.3c-10.1-67.3-20-133-29.9-198.9C85.1,83.7,49.5,83.7,12.9,83.7z"/>
		<path class="st0" d="M184.6,416c14.3-26.1,28.3-51.8,42.7-77.9c18.1,15.8,38.4,26.8,60.2,35c15.9,6,32.1,10.9,49.4,10.5
			c4.1-0.1,8.3-0.8,12.3-2c6.9-2.1,11.6-6.5,12.3-14.2c0.7-7.9-2.9-13.8-9.9-16.5c-11.8-4.7-24-8.5-36.1-12.5
			c-14.5-4.8-29.3-8.6-43.5-14c-47.5-18.2-63.3-54.7-50.2-102.2c9.7-35.1,35.2-55.9,68.1-68.5c33.1-12.7,67.4-13.8,102.1-9.5
			c32.2,4.1,62.8,13.8,90.9,30.6c1.9,1.2,3.8,2.4,6.3,3.9c-15,25.8-29.8,51.2-44.7,76.9c-9.7-5-18.9-10.3-28.5-14.7
			c-21.9-9.9-44.2-19.2-68.6-20.8c-4.7-0.3-9.7,0-14.2,1.2c-10.6,3-13.8,14.9-6,22.7c3.4,3.4,8.1,6.2,12.7,7.8
			c18,6.2,36.2,11.7,54.2,17.7c19.3,6.5,37.9,14.1,52.4,29.5c11.9,12.6,18.5,27.2,19.6,44.4c3.4,52.8-23.3,91.6-74.7,108.2
			c-48.2,15.5-96.1,12-143.7-3.2C225,441.2,204.1,430.8,184.6,416z"/>
		<path class="st0" d="M12.9,83.7c36.6,0,72.1,0,108.2,0c9.9,65.9,19.8,131.6,29.9,198.9c1.5-2.5,2.4-3.9,3.1-5.3
			c37.7-78.4,75.5-156.7,113.2-235.1c0.5-0.9,1-1.8,1.3-2.8c1.7-5.9,5.4-7.5,11.6-7.4c31.4,0.4,62.8,0.2,95,0.2
			c-1,2.2-1.7,3.8-2.6,5.4c-16.3,28.7-32.7,57.4-48.9,86.2c-2.2,4-5.1,5.5-9.2,6.2c-32.7,6.1-62.3,18.8-84.5,44.3
			c-28.3,32.5-36.2,70-22.9,111.2c2.7,8.3,8.6,15.6,13.6,23c1.7,2.6,2.5,4.1,0.9,7c-12.2,23.1-24.4,46.2-36.3,69.5
			c-1.7,3.3-3.8,4.3-7.4,4.3c-31.4-0.1-62.8-0.2-94.2,0c-4.5,0-5.9-1.5-6.8-5.8C58.4,296.2,39.7,208.9,21,121.7
			C18.4,109.2,15.7,96.8,12.9,83.7z"/>
	</g>
</g>
</svg>
