<?xml version="1.0" encoding="utf-8"?>
<!-- Generator: Adobe Illustrator 27.0.0, SVG Export Plug-In . SVG Version: 6.00 Build 0)  -->
<svg version="1.1" id="Capa_1" xmlns:ns0="http://www.w3.org/2000/svg"
	 xmlns="http://www.w3.org/2000/svg" xmlns:xlink="http://www.w3.org/1999/xlink" x="0px" y="0px" viewBox="0 0 24 24"
	 style="enable-background:new 0 0 24 24;" xml:space="preserve">
<style type="text/css">
	.st0{fill:#FFFFFF;}
</style>
<g id="aZpitj_2_">
	<g>
		<path class="st0" d="M13.4,19c-0.7,0.7-1.4,1.4-2,2c-2.8-3-5.7-6-8.5-9c2.8-3,5.6-6,8.4-9.1c0.6,0.7,1.3,1.4,1.9,2.2
			c-1.6,1.8-3.3,3.6-5,5.4c4.3,0,8.6,0,12.8,0c0,1,0,2,0,3c-4.3,0-8.5,0-12.8,0C10,15.4,11.7,17.2,13.4,19z"/>
		<path class="st0" d="M13.4,19c-1.7-1.8-3.4-3.6-5.1-5.5c4.3,0,8.6,0,12.8,0c0-1.1,0-2,0-3c-4.3,0-8.5,0-12.8,0
			c1.7-1.8,3.4-3.6,5-5.4c-0.6-0.7-1.3-1.4-1.9-2.2C8.5,6,5.7,9,2.9,12.1c2.9,3,5.7,6,8.5,9C12,20.5,12.7,19.8,13.4,19z"/>
	</g>
</g>
</svg>
